<svg xmlns="http://www.w3.org/2000/svg" viewBox="0 0 113.5 67.92"><defs><style>.cls-1{fill:#fff;}.cls-2{fill:#f90;fill-rule:evenodd;}</style></defs><title>aws-logo_1</title><g id="Layer_2" data-name="Layer 2"><g id="Layer_1-2" data-name="Layer 1"><path class="cls-1" d="M32,24.67A11.53,11.53,0,0,0,32.4,28a19.76,19.76,0,0,0,1.21,2.72,1.63,1.63,0,0,1,.26.87,1.47,1.47,0,0,1-.71,1.13l-2.38,1.59a1.78,1.78,0,0,1-1,.34,1.75,1.75,0,0,1-1.14-.53,12.12,12.12,0,0,1-1.36-1.77c-.37-.65-.75-1.36-1.17-2.23A13.94,13.94,0,0,1,15,35.36a10.35,10.35,0,0,1-7.55-2.72,9.7,9.7,0,0,1-2.8-7.25A9.77,9.77,0,0,1,8.13,17.6c2.3-2,5.36-2.94,9.25-2.94a29.73,29.73,0,0,1,4,.3c1.39.19,2.83.49,4.34.83V13c0-2.87-.61-4.87-1.78-6S20.7,5.25,17.79,5.25a17.21,17.21,0,0,0-4.08.49A30.08,30.08,0,0,0,9.64,7a13.48,13.48,0,0,1-1.32.49,2.63,2.63,0,0,1-.61.11c-.53,0-.79-.38-.79-1.17V4.61a2.45,2.45,0,0,1,.26-1.32,2.84,2.84,0,0,1,1.06-.8A22.08,22.08,0,0,1,13,.79,22.91,22.91,0,0,1,18.89.08c4.49,0,7.77,1,9.89,3.06s3.13,5.13,3.13,9.29V24.67ZM16.66,30.41a12.36,12.36,0,0,0,3.89-.68,8.31,8.31,0,0,0,3.58-2.42,5.94,5.94,0,0,0,1.29-2.41,14,14,0,0,0,.37-3.29V20a32,32,0,0,0-3.47-.64,28.7,28.7,0,0,0-3.55-.23c-2.53,0-4.38.49-5.62,1.51A5.26,5.26,0,0,0,11.3,25a5.24,5.24,0,0,0,1.4,4A5.19,5.19,0,0,0,16.66,30.41ZM47,34.49a2.06,2.06,0,0,1-1.43-.38,3,3,0,0,1-.8-1.47L35.87,3.44a7.13,7.13,0,0,1-.34-1.51A.83.83,0,0,1,36.44,1h3.7a2.09,2.09,0,0,1,1.47.38,3.18,3.18,0,0,1,.76,1.47l6.34,25,5.89-25a2.63,2.63,0,0,1,.71-1.47A2.59,2.59,0,0,1,56.82,1h3a2.29,2.29,0,0,1,1.51.38,2.52,2.52,0,0,1,.72,1.47l6,25.31L74.57,2.83a3.26,3.26,0,0,1,.75-1.47A2.42,2.42,0,0,1,76.79,1H80.3a.84.84,0,0,1,1,1,3.55,3.55,0,0,1-.08.6,5.64,5.64,0,0,1-.26,1l-9.1,29.2A3,3,0,0,1,71,34.15a2.43,2.43,0,0,1-1.44.38H66.34a2.23,2.23,0,0,1-1.51-.38,2.59,2.59,0,0,1-.72-1.51L58.26,8.27,52.44,32.6a2.86,2.86,0,0,1-.71,1.51,2.3,2.3,0,0,1-1.51.38Zm48.51,1a25.17,25.17,0,0,1-5.82-.68,17,17,0,0,1-4.34-1.51,2.74,2.74,0,0,1-1.17-1.06,2.69,2.69,0,0,1-.22-1.06V29.28c0-.8.3-1.17.86-1.17a2,2,0,0,1,.68.11c.23.08.57.23,1,.38a20.75,20.75,0,0,0,4.15,1.32,22.79,22.79,0,0,0,4.49.45,10.18,10.18,0,0,0,5.51-1.24,4.06,4.06,0,0,0,2-3.59,3.69,3.69,0,0,0-1-2.65,9.56,9.56,0,0,0-3.82-2l-5.47-1.7a11.56,11.56,0,0,1-6-3.85A9.08,9.08,0,0,1,84.3,9.9a8.43,8.43,0,0,1,1-4.2A9.81,9.81,0,0,1,88,2.61,12.09,12.09,0,0,1,92,.64,16.52,16.52,0,0,1,96.72,0a19.52,19.52,0,0,1,2.53.15c.87.11,1.66.27,2.46.42s1.47.37,2.15.6a8,8,0,0,1,1.58.68,3.3,3.3,0,0,1,1.14.95A2.05,2.05,0,0,1,106.92,4V5.82c0,.79-.31,1.21-.87,1.21a3.84,3.84,0,0,1-1.44-.46A17.25,17.25,0,0,0,97.37,5.1a9.73,9.73,0,0,0-5,1.06,3.64,3.64,0,0,0-1.77,3.36A3.58,3.58,0,0,0,91.7,12.2a11.21,11.21,0,0,0,4.16,2.08l5.36,1.7a11.51,11.51,0,0,1,5.85,3.63,8.54,8.54,0,0,1,1.73,5.29,9.76,9.76,0,0,1-1,4.38,10.11,10.11,0,0,1-2.75,3.32,12.08,12.08,0,0,1-4.19,2.12A18,18,0,0,1,95.48,35.51Z"/><path class="cls-2" d="M102.61,53.87c-12.42,9.18-30.46,14.05-46,14.05A83.12,83.12,0,0,1,.5,46.5c-1.17-1-.11-2.49,1.29-1.66A113,113,0,0,0,58,59.76,112.08,112.08,0,0,0,100.8,51C102.88,50.06,104.65,52.36,102.61,53.87Z"/><path class="cls-2" d="M107.78,48c-1.58-2-10.49-1-14.53-.49-1.21.15-1.4-.91-.3-1.7,7.1-5,18.76-3.55,20.12-1.89s-.38,13.37-7,19c-1,.87-2,.42-1.55-.72C106,58.4,109.37,50,107.78,48Z"/></g></g></svg>