<svg xmlns="http://www.w3.org/2000/svg" id="Layer_1" data-name="Layer 1" viewBox="0 0 512 512" width="512" height="512"><g id="_Group_2" data-name="Group 2"><path d="M496 254.18v202.1a23.091 23.091 0 01-23.08 23.09H335.89a23.084 23.084 0 01-23.08-23.09v-202.1a23.076 23.076 0 0123.08-23.08h31.17v.07a17.156 17.156 0 0017.16 17.16h40.37a17.156 17.156 0 0017.16-17.16v-.07h31.17A23.082 23.082 0 01496 254.18zM376.92 382.13v-32.98h-32.97v32.98z" fill="#f8ec7d"/><path d="M367.06 231.1v-1.05a17.156 17.156 0 0117.16-17.16h40.37a17.156 17.156 0 0117.16 17.16v1.12a17.156 17.156 0 01-17.16 17.16h-40.37a17.156 17.156 0 01-17.16-17.16z" fill="#6fe3ff"/><path d="M391.31 140.98v71.91h-7.09a17.156 17.156 0 00-17.16 17.16v1.05h-31.17a23.076 23.076 0 00-23.08 23.08v148.8L203.65 466V249.3l187.64-108.33z" fill="#c16752"/><path fill="#af593c" d="M203.65 249.3l-95.66-55.23L295.62 85.73h.01l95.66 55.24L203.65 249.3z"/><path fill="#6fe3ff" d="M343.95 349.15h32.97v32.98h-32.97z"/><path fill="#c16752" d="M295.62 85.73L107.99 194.07l-91.97-53.1L203.65 32.63l91.97 53.1z"/><path fill="#e48e66" d="M203.65 249.3V466L16 357.66V140.98l.02-.01 91.97 53.1 95.66 55.23z"/><path d="M351.28 325.01h-7.33a7 7 0 01-7-7v-32.98a7 7 0 017-7h32.97a7 7 0 017 7v4.71a7 7 0 01-13.617 2.29H350.95v18.98h.33a7 7 0 010 14zM351.28 453.24h-7.33a7 7 0 01-7-7v-32.97a7 7 0 017-7h32.97a7 7 0 017 7v6.74a7 7 0 01-14 .26h-18.97v18.97h.33a7 7 0 010 14z" fill="#6fe3ff"/><path d="M372.54 323.99a6.972 6.972 0 01-4.947-2.048l-11.193-11.18a7 7 0 119.9-9.9l6.241 6.235 20.5-20.5a7 7 0 119.9 9.9l-25.45 25.45a6.979 6.979 0 01-4.951 2.043zM372.54 453.24a6.972 6.972 0 01-4.947-2.048l-11.193-11.18a7 7 0 119.9-9.9l6.241 6.235 20.5-20.5a7 7 0 119.9 9.9l-25.45 25.45a6.979 6.979 0 01-4.951 2.043z" fill="#2561a1"/><path d="M464.86 308.52h-43.97a7 7 0 010-14h43.97a7 7 0 010 14zM464.86 372.64h-43.97a7 7 0 010-14h43.97a7 7 0 010 14zM464.86 436.76h-43.97a7 7 0 010-14h43.97a7 7 0 010 14z" fill="#e48e66"/></g></svg>