<?xml version="1.0" encoding="utf-8"?>
<!-- Generator: Adobe Illustrator 16.0.0, SVG Export Plug-In . SVG Version: 6.00 Build 0)  -->
<!DOCTYPE svg PUBLIC "-//W3C//DTD SVG 1.1//EN" "http://www.w3.org/Graphics/SVG/1.1/DTD/svg11.dtd">
<svg version="1.1" id="Layer_1" xmlns="http://www.w3.org/2000/svg" xmlns:xlink="http://www.w3.org/1999/xlink" x="0px" y="0px"
	 width="512px" height="512px" viewBox="0 0 512 512" enable-background="new 0 0 512 512" xml:space="preserve">
<g id="rocket_3">
	<path fill="#FFCE54" d="M17.242,493.124c3.625-10.188,8.344-23.141,13.625-36.563c19.875-50.642,30.407-65.782,34.938-70.298
		c6.781-6.797,15.188-11.375,24.313-13.266l3.156-0.656l35.344-35.75l42.312,48.875l-32.906,31.516l-0.688,3.235
		c-1.875,9.125-6.469,17.531-13.25,24.344c-4.531,4.5-19.656,15.062-70.282,34.923C40.368,484.749,27.398,489.499,17.242,493.124z"
		/>
	<path fill="#F6BB42" d="M129.15,320.935l-41.188,41.641c-10.719,2.219-21.126,7.609-29.688,16.172
		C36.399,400.622-0.008,510.358-0.008,510.358s109.72-36.391,131.626-58.282c8.531-8.547,13.938-18.969,16.156-29.703l37.812-36.22
		L129.15,320.935z M133.056,406.997l-4.781,4.594l-1.344,6.484c-1.469,7.079-5.062,13.642-10.375,18.954
		c-1.75,1.75-13.219,11.578-66.563,32.517c-5.094,1.984-10.094,3.906-14.906,5.703c1.812-4.812,3.719-9.812,5.719-14.876
		c20.938-53.36,30.75-64.829,32.531-66.579c5.313-5.328,11.876-8.906,18.938-10.359l6.312-1.312l4.531-4.578l24.969-25.281
		l28.156,32.516L133.056,406.997z"/>
	<g>
		<path fill="#DA4453" d="M199.901,423.389c5.969-2.797,11.938-5.767,17.875-8.876l121.501-86.781
			c4.969-4.641,9.875-9.391,14.719-14.203c2.781-2.812,5.563-5.625,8.282-8.469c-0.469,55.359-25.845,115.923-74.032,164.127
			c-16.062,16.047-33.469,29.562-51.625,40.484c-0.125,0.078-0.845,0.5-0.845,0.5c-4.031,2.188-9.188,1.578-12.594-1.828
			c-1.125-1.141-1.938-2.469-2.438-3.875c0,0-0.375-1.109-0.469-1.594l-21.938-78.767
			C198.87,423.873,199.37,423.623,199.901,423.389z"/>
		<path fill="#DA4453" d="M207.526,150.261c-2.844,2.734-5.656,5.516-8.469,8.312c-4.813,4.828-9.563,9.734-14.188,14.703
			c-21.281,3-86.812,121.517-86.812,121.517c-3.094,5.938-6.062,11.892-8.875,17.876c-0.25,0.516-0.469,1.031-0.719,1.547
			L9.68,292.277c-0.469-0.094-1.594-0.469-1.594-0.469c-1.406-0.5-2.719-1.312-3.875-2.453c-3.406-3.406-4-8.547-1.812-12.594
			c0,0,0.406-0.703,0.5-0.828c10.906-18.157,24.406-35.563,40.469-51.625C91.587,176.089,152.15,150.714,207.526,150.261z"/>
	</g>
	<path fill="#E6E9ED" d="M196.995,151.042C136.587,211.464,93.025,280.48,68.743,347.341c-1.281,3.75-0.469,8.031,2.531,11.016
		l82.907,82.938c3,2.969,7.281,3.797,11.031,2.516c66.876-24.282,135.877-67.829,196.285-128.251
		c93.876-93.845,146.563-207.081,150.501-303.645c0.125-2.875-0.906-6.047-3.094-8.25c-2.219-2.203-5.375-3.234-8.281-3.109
		C404.061,4.493,290.84,57.197,196.995,151.042z"/>
	<path fill="#434A54" d="M317.59,237.527c-11.375,0-22.062-4.438-30.094-12.469c-8.031-8.047-12.469-18.735-12.469-30.11
		s4.438-22.063,12.469-30.11c8.031-8.031,18.75-12.469,30.094-12.469c11.375,0,22.062,4.438,30.125,12.469
		c16.595,16.61,16.595,43.625,0,60.22c-8.062,8.031-18.75,12.469-30.094,12.469C317.59,237.527,317.59,237.527,317.59,237.527z"/>
	<path fill="#434A54" d="M227.276,327.841c-11.375,0-22.062-4.422-30.094-12.469c-8.032-8.031-12.47-18.735-12.47-30.095
		c0-11.375,4.438-22.078,12.47-30.125c8.031-8.031,18.719-12.469,30.094-12.469c11.376,0,22.063,4.438,30.126,12.469
		c16.594,16.61,16.594,43.626,0,60.22C249.339,323.419,238.652,327.841,227.276,327.841L227.276,327.841z"/>
	<g>
		<path fill="#CCD1D9" d="M355.246,157.323c-10.062-10.047-23.438-15.594-37.656-15.594c-14.188,0-27.562,5.547-37.625,15.594
			c-10.031,10.047-15.594,23.422-15.594,37.625c0,14.219,5.562,27.579,15.594,37.641c10.062,10.046,23.438,15.578,37.625,15.578
			c14.219,0,27.594-5.531,37.656-15.578C375.997,211.839,375.997,178.074,355.246,157.323z M340.184,217.527
			c-6.25,6.234-14.406,9.359-22.594,9.359c-8.156,0-16.344-3.125-22.562-9.359c-12.469-12.469-12.469-32.688,0-45.157
			c6.219-6.234,14.406-9.344,22.562-9.344c8.188,0,16.344,3.109,22.594,9.344C352.652,184.839,352.652,205.058,340.184,217.527z"/>
		<path fill="#CCD1D9" d="M227.276,232.059c-14.219,0-27.562,5.531-37.626,15.578c-10.062,10.046-15.594,23.422-15.594,37.641
			c0,14.204,5.531,27.563,15.594,37.626c10.063,10.047,23.407,15.594,37.626,15.594c14.22,0,27.595-5.547,37.658-15.594
			c20.75-20.75,20.75-54.517,0-75.267C254.871,237.59,241.496,232.059,227.276,232.059z M249.871,307.841
			c-6.25,6.25-14.407,9.359-22.595,9.359c-8.156,0-16.344-3.109-22.562-9.359c-12.47-12.47-12.47-32.688,0-45.157
			c6.219-6.235,14.406-9.344,22.562-9.344c8.188,0,16.345,3.109,22.595,9.344C262.34,275.152,262.34,295.371,249.871,307.841z"/>
	</g>
	<path fill="#DA4453" d="M479.217,145.808L366.747,33.353c45.813-19.922,91.47-31.063,133.876-32.797
		c2.906-0.125,6.062,0.906,8.281,3.109c2.188,2.203,3.219,5.375,3.094,8.25C510.279,54.353,499.123,99.995,479.217,145.808z"/>
</g>
</svg>
