<?xml version="1.0" encoding="utf-8"?>
<!-- Generator: Adobe Illustrator 16.0.0, SVG Export Plug-In . SVG Version: 6.00 Build 0)  -->
<!DOCTYPE svg PUBLIC "-//W3C//DTD SVG 1.1//EN" "http://www.w3.org/Graphics/SVG/1.1/DTD/svg11.dtd">
<svg version="1.1" id="Layer_1" xmlns="http://www.w3.org/2000/svg" xmlns:xlink="http://www.w3.org/1999/xlink" x="0px" y="0px"
	 width="512px" height="512px" viewBox="0 0 512 512" enable-background="new 0 0 512 512" xml:space="preserve">
<g id="clean_code">
	<g>
		<path fill="#E6E9ED" d="M469.161,128.1V74.813c0-11.788-9.555-21.327-21.326-21.327H21.512C9.74,53.486,0.2,63.025,0.2,74.813
			V128.1H469.161z"/>
	</g>
	<g>
		<polygon fill="#656D78" points="396.063,415.875 0.2,415.875 0.2,96.125 469.161,96.125 469.161,319.278 		"/>
	</g>
	<path fill="#ED5564" d="M42.823,74.813c0,5.886-4.778,10.648-10.648,10.648c-5.902,0-10.664-4.762-10.664-10.648
		S26.273,64.15,32.175,64.15C38.045,64.15,42.823,68.928,42.823,74.813z"/>
	<path fill="#FFCE54" d="M74.798,74.813c0,5.886-4.778,10.648-10.648,10.648c-5.902,0-10.664-4.762-10.664-10.648
		S58.249,64.15,64.15,64.15C70.021,64.15,74.798,68.928,74.798,74.813z"/>
	<path fill="#A0D468" d="M106.773,74.813c0,5.886-4.762,10.648-10.663,10.648c-5.886,0-10.648-4.762-10.648-10.648
		S90.224,64.15,96.11,64.15C102.011,64.15,106.773,68.928,106.773,74.813z"/>
	<path fill="#FC6E51" d="M373.237,138.748H53.487c-5.886,0-10.664,4.777-10.664,10.663c0,5.886,4.777,10.664,10.664,10.664h319.75
		c5.885,0,10.646-4.778,10.646-10.664C383.884,143.525,379.122,138.748,373.237,138.748z"/>
	<path fill="#AC92EB" d="M53.487,202.698H224.01c5.886,0,10.664-4.762,10.664-10.648c0-5.886-4.777-10.663-10.664-10.663H53.487
		c-5.886,0-10.664,4.777-10.664,10.663C42.823,197.936,47.601,202.698,53.487,202.698z"/>
	<path fill="#48CFAD" d="M287.96,224.025H53.487c-5.886,0-10.664,4.762-10.664,10.648c0,5.901,4.777,10.664,10.664,10.664H287.96
		c5.885,0,10.664-4.762,10.664-10.664C298.624,228.787,293.845,224.025,287.96,224.025z"/>
	<path fill="#5D9CEC" d="M53.487,287.976h149.211c5.886,0,10.664-4.778,10.664-10.664s-4.777-10.664-10.664-10.664H53.487
		c-5.886,0-10.664,4.778-10.664,10.664S47.601,287.976,53.487,287.976z"/>
	<path fill="#FFCE54" d="M224.01,309.286H53.487c-5.886,0-10.664,4.777-10.664,10.664c0,5.886,4.777,10.647,10.664,10.647H224.01
		c5.886,0,10.664-4.762,10.664-10.647C234.673,314.063,229.896,309.286,224.01,309.286z"/>
	<path fill="#ED5564" d="M138.748,351.925H53.487c-5.886,0-10.664,4.762-10.664,10.648c0,5.886,4.777,10.663,10.664,10.663h85.261
		c5.886,0,10.664-4.777,10.664-10.663C149.412,356.687,144.634,351.925,138.748,351.925z"/>
	<g>
		<polygon fill="#3BAED9" points="469.161,266.647 298.624,266.647 255.969,330.629 383.884,458.514 511.784,330.598 		"/>
	</g>
	<polygon fill="#4FC0E8" points="319.935,330.598 383.884,458.514 447.835,330.598 	"/>
	<polygon fill="#4BBDE0" points="298.624,266.647 255.969,330.629 319.935,330.598 	"/>
	<polygon fill="#56CEEF" points="319.919,330.629 383.899,266.647 298.608,266.663 	"/>
	<polygon fill="#56CEEF" points="447.819,330.629 469.146,266.647 383.868,266.663 	"/>
	<polygon fill="#4BBDE0" points="469.161,266.647 447.819,330.629 511.8,330.598 	"/>
	<polygon fill="#5CDAF7" points="383.884,266.663 319.935,330.598 447.835,330.598 	"/>
</g>
</svg>
