<svg height="512pt" viewBox="0 0 512 512" width="512pt" xmlns="http://www.w3.org/2000/svg"><path d="M454.52 167.582h-49.036c-26.226 0-47.484 21.258-47.484 47.48v81.547c0 15.825 12.828 28.649 28.648 28.649h86.704c15.824 0 28.648-12.824 28.648-28.649v-81.546c0-26.223-21.258-47.481-47.48-47.481zm0 0" fill="#72d8ff"/><path d="M32.023 143.176h69.41v236.222h-69.41zm0 0" fill="#6a80ff"/><path d="M66.727 293.547C35.398 293.547 10 318.94 10 350.273v151.692h113.457V350.273c0-31.332-25.398-56.726-56.73-56.726zm0 0" fill="#6a80ff"/><path d="M394 325.258h72v176.707h-72zm0 0" fill="#ffb954"/><path d="M191.648 17.797l72.579 72.578c8.144 8.145 8.144 21.348 0 29.496-8.149 8.145-21.352 8.145-29.497 0l-53.593-53.594zm0 0" fill="#6a80ff"/><path d="M64.973 106.633l88.804-88.805c10.465-10.465 27.438-10.465 37.903 0 10.468 10.469 10.468 27.438 0 37.906l-88.47 88.47zm0 0" fill="#6a80ff"/><g fill="#ade5ff"><path d="M199.516 36.672c0 14.754-11.957 26.71-26.711 26.71-14.75 0-26.707-11.956-26.707-26.71 0-14.75 11.957-26.707 26.707-26.707 14.754 0 26.71 11.957 26.71 26.707zm0 0M101.434 143.176c0 19.164-15.54 34.703-34.707 34.703-19.165 0-34.704-15.54-34.704-34.703 0-19.168 15.54-34.707 34.704-34.707 19.168 0 34.707 15.539 34.707 34.707zm0 0M90.727 349.258c0 13.258-10.743 24-24 24-13.254 0-24-10.742-24-24 0-13.254 10.746-24 24-24 13.257 0 24 10.746 24 24zm0 0"/></g><path d="M413 363.547H109c-19.328 0-35-15.672-35-35 0-19.332 15.672-35 35-35h304c19.328 0 35 15.668 35 35 0 19.328-15.672 35-35 35zm0 0" fill="#2e9de3"/><path d="M430 167.594c-18.777 0-34-15.219-34-34v-22.422h68v22.422c0 18.777-15.223 34-34 34zm0 0" fill="#feda9b"/><path d="M430 67.496c-22.406 0-40.574 18.168-40.574 40.574v3.102h81.148v-3.102c0-22.406-18.168-40.574-40.574-40.574zm0 0" fill="#ffc66c"/><path d="M157.434 221.547h72v72h-72zm0 0M290 221.547h72v72h-72zm0 0" fill="#ffb954"/><path d="M123.457 363.547H394v138.418H123.457zm0 0" fill="#ade5ff"/><path d="M466.07 158.75c4.989-7.137 7.93-15.809 7.93-25.156v-13.04c3.832-1.402 6.574-5.07 6.574-9.386v-3.098c0-27.886-22.687-50.574-50.574-50.574s-50.574 22.688-50.574 50.574v3.098c0 4.316 2.742 7.984 6.574 9.387v13.039c0 9.347 2.938 18.02 7.93 25.156-25.063 5.133-44.223 26.629-45.813 52.797H290c-5.523 0-10 4.476-10 10v62h-40.566v-62c0-5.524-4.48-10-10-10h-72c-5.524 0-10 4.476-10 10v62h-36V150.125l69.703-69.703 46.523 46.52a30.63 30.63 0 0012.84 7.695v16.886l-20.902 20.903a10 10 0 00-2.93 7.07v18.469c0 5.52 4.48 10 10 10 5.523 0 10-4.48 10-10V183.64l13.832-13.832 13.832 13.832v12.824c0 5.523 4.48 10 10 10 5.523 0 10-4.477 10-10v-16.969a10 10 0 00-2.93-7.07L260.5 151.523V133.93a30.71 30.71 0 0010.797-6.989c5.828-5.828 9.039-13.578 9.039-21.82s-3.211-15.988-9.04-21.816l-72.573-72.578a.68.68 0 01-.055-.047c-14.356-14.266-37.64-14.239-51.965.078L58.16 99.3c-20.562 4.011-36.137 22.152-36.137 43.875v51.789c0 5.52 4.48 10 10 10 5.524 0 10-4.48 10-10v-14.559a44.411 44.411 0 0024.704 7.473 44.414 44.414 0 0024.707-7.473v106.715c-.473.2-.934.414-1.399.629a66.452 66.452 0 00-23.308-4.203c-8.727 0-17.059 1.7-24.704 4.758V268.96c0-5.52-4.476-10-10-10-5.523 0-10 4.48-10 10v31.816C8.508 313 0 330.66 0 350.273v151.692c0 5.52 4.477 10 10 10h456c5.52 0 10-4.48 10-10V335.156c20.078-1.363 36-18.125 36-38.547v-81.546c0-27.739-19.75-50.954-45.93-56.313zm-36.61-1.168c-12.983-.289-23.46-10.934-23.46-23.988v-12.426h48v12.426c0 13.054-10.477 23.699-23.46 23.988zm30.33-56.414H440V79.18c9.836 3.418 17.41 11.718 19.79 21.988zM420 79.18v21.988h-19.79c2.38-10.27 9.954-18.57 19.79-21.988zm-7 224.367c13.785 0 25 11.215 25 25s-11.215 25-25 25H109c-13.785 0-25-11.215-25-25s11.215-25 25-25zm-9 70h9c2.383 0 4.719-.192 7-.547v118.965h-16zM64.531 335.449c1.422 9.219 5.664 17.516 11.801 23.996a13.957 13.957 0 01-9.605 3.813c-7.72 0-14-6.278-14-14 0-6.969 5.125-12.75 11.804-13.809zM300 231.547h52v52h-52zm-132.566 0h52v52h-52zM146.848 62.633c4.21 4.207 9.261 7.262 14.777 9.015l-53.844 53.844a44.968 44.968 0 00-23.922-23.605l54.008-54.004a36.485 36.485 0 008.98 14.75zm113.488 42.488c0 2.899-1.133 5.625-3.184 7.676-4.23 4.234-11.12 4.234-15.351 0l-46.524-46.52 3.477-3.472a36.688 36.688 0 009.016-14.746l49.382 49.386a10.789 10.789 0 013.184 7.676zm-75.727-80.219a16.675 16.675 0 014.922 11.88 16.67 16.67 0 01-4.12 11c-.27.218-.536.452-.79.706-6.516 6.516-17.117 6.516-23.633 0-6.511-6.515-6.511-17.113 0-23.629.153-.152.29-.312.43-.472 6.586-6.012 16.824-5.856 23.191.515zM66.727 167.88c-13.622 0-24.704-11.082-24.704-24.703 0-13.625 11.082-24.707 24.704-24.707 13.625 0 24.707 11.082 24.707 24.707 0 13.62-11.082 24.703-24.707 24.703zM20 350.273c0-25.765 20.96-46.726 46.727-46.726 1.59 0 3.164.082 4.722.238A44.756 44.756 0 0066 315.277c-18.414.391-33.273 15.477-33.273 33.98 0 18.75 15.253 34 34 34 10.414 0 20.046-4.702 26.425-12.6a44.762 44.762 0 0015.848 2.89h4.457V491.96H20zm364 141.692H133.457v-70.418H250.5c5.523 0 10-4.48 10-10 0-5.524-4.477-10-10-10H133.457v-28H384zm56 0V364.523c7.488-5.636 13.168-13.546 16-22.699v150.14zm52-195.356c0 9.383-6.973 17.149-16 18.442v-85.024c0-5.523-4.477-10-10-10s-10 4.477-10 10v85.242c-5.68-18.351-22.809-31.722-43-31.722h-9v-53.52c0-5.523-4.477-10-10-10s-10 4.477-10 10v53.52h-12v-62a9.972 9.972 0 00-3.96-7.957c.776-19.988 17.269-36.008 37.444-36.008h23.977c.18 0 .36.012.539.012.184 0 .36-.008.54-.012h23.98c20.668 0 37.48 16.813 37.48 37.48zm0 0"/><path d="M32.02 244.965c2.628 0 5.21-1.07 7.07-2.934a10.02 10.02 0 002.93-7.066c0-2.633-1.06-5.211-2.93-7.07a10.042 10.042 0 00-7.07-2.93c-2.63 0-5.211 1.066-7.07 2.93a10.073 10.073 0 00-2.93 7.07 10.07 10.07 0 002.93 7.066 10.067 10.067 0 007.07 2.934zm0 0M66.73 133.172c-2.64 0-5.21 1.07-7.07 2.93a10.087 10.087 0 00-2.93 7.07c0 2.64 1.07 5.21 2.93 7.07 1.86 1.86 4.43 2.93 7.07 2.93 2.63 0 5.207-1.07 7.07-2.93a10.073 10.073 0 002.93-7.07c0-2.629-1.07-5.207-2.93-7.07a10.087 10.087 0 00-7.07-2.93zm0 0M165.73 43.742a10.087 10.087 0 007.07 2.93c2.637 0 5.208-1.07 7.079-2.93a10.073 10.073 0 002.93-7.07c0-2.629-1.07-5.207-2.93-7.07a10.122 10.122 0 00-7.078-2.93c-2.633 0-5.203 1.07-7.07 2.93a10.079 10.079 0 00-2.922 7.07c0 2.633 1.062 5.21 2.921 7.07zm0 0M202 318.543a10.08 10.08 0 00-7.07 2.93 10.087 10.087 0 00-2.93 7.07c0 2.629 1.07 5.21 2.93 7.07 1.86 1.867 4.441 2.93 7.07 2.93s5.21-1.063 7.07-2.93a10.08 10.08 0 002.93-7.07c0-2.629-1.07-5.211-2.93-7.07a10.08 10.08 0 00-7.07-2.93zm0 0M138 318.543a10.08 10.08 0 00-7.07 2.93 10.087 10.087 0 00-2.93 7.07c0 2.64 1.07 5.21 2.93 7.07 1.86 1.86 4.43 2.93 7.07 2.93 2.629 0 5.21-1.07 7.07-2.93 1.86-1.86 2.93-4.43 2.93-7.07 0-2.629-1.07-5.211-2.93-7.07a10.08 10.08 0 00-7.07-2.93zm0 0M394 338.543c2.629 0 5.21-1.063 7.07-2.93 1.86-1.86 2.93-4.43 2.93-7.07 0-2.629-1.07-5.211-2.93-7.07-1.86-1.86-4.441-2.93-7.07-2.93s-5.21 1.07-7.07 2.93a10.087 10.087 0 00-2.93 7.07c0 2.64 1.07 5.21 2.93 7.07a10.03 10.03 0 007.07 2.93zm0 0M266 318.543a10.08 10.08 0 00-7.07 2.93 10.087 10.087 0 00-2.93 7.07c0 2.629 1.07 5.21 2.93 7.07 1.86 1.867 4.441 2.93 7.07 2.93s5.21-1.063 7.07-2.93c1.86-1.86 2.93-4.43 2.93-7.07 0-2.629-1.07-5.211-2.93-7.07a10.08 10.08 0 00-7.07-2.93zm0 0M330 318.543a10.08 10.08 0 00-7.07 2.93 10.087 10.087 0 00-2.93 7.07c0 2.629 1.07 5.21 2.93 7.07 1.86 1.867 4.441 2.93 7.07 2.93s5.21-1.063 7.07-2.93a10.08 10.08 0 002.93-7.07c0-2.629-1.07-5.211-2.93-7.07a10.08 10.08 0 00-7.07-2.93zm0 0M288.898 421.543a10.04 10.04 0 007.07-2.93c1.86-1.86 2.93-4.43 2.93-7.07 0-2.629-1.07-5.211-2.93-7.07s-4.429-2.93-7.07-2.93c-2.628 0-5.21 1.07-7.07 2.93s-2.93 4.441-2.93 7.07c0 2.64 1.07 5.21 2.93 7.07a10.03 10.03 0 007.07 2.93zm0 0"/></svg>