<?xml version="1.0" encoding="UTF-8"?><svg version="1.1" viewBox="0 0 161 181" xmlns="http://www.w3.org/2000/svg" xmlns:xlink="http://www.w3.org/1999/xlink"><g transform="matrix(1 0 0 1 -3555 -1281)"><path fill="#F900AF" stroke="none" d="M95.8526 20.8672l36.9483 21.3846c1.0404-1.10471 2.25565-2.08012 3.63428-2.88282 7.66297-4.41576 17.4367-1.7939 21.8877 5.88769 4.40506 7.68159 1.78956 17.4791-5.87342 21.9408 -1.36809.788357-2.80492 1.3524-4.2674 1.70338v42.7859c1.44665.351721 2.86774.912184 4.22152 1.69229 7.70886 4.46176 10.3244 14.2592 5.87342 21.9408 -4.40506 7.68159-14.2247 10.3035-21.8877 5.88769 -1.52562-.879133-2.85117-1.9734-3.96109-3.22291l-36.7229 21.2541c.524968 1.59013.809035 3.29107.809035 5.05955 0 8.83153-7.15823 16.0531-16.0142 16.0531 -8.85601 0-16.0142-7.17562-16.0142-16.0531 0-1.578.226171-3.10223.647846-4.54195l-36.9385-21.3789c-1.02929 1.08302-2.22773 2.04016-3.58436 2.83006 -7.70886 4.41576-17.4826 1.7939-21.8877-5.88769 -4.40506-7.68159-1.78956-17.4791 5.87342-21.9408 1.35488-.780746 2.77575-1.34149 4.22152-1.69315v-42.785c-1.46249-.35098-2.89932-.915021-4.2674-1.70338 -7.66297-4.41576-10.2785-14.2592-5.87342-21.9408 4.40506-7.68159 14.2247-10.3035 21.8877-5.88769 1.37113.798338 2.58066 1.7675 3.61729 2.86481l36.9583-21.3903c-.426069-1.44656-.654686-2.97872-.654686-4.56524 0-8.87753 7.15823-16.0531 16.0142-16.0531 8.85601-1.41553e-15 16.0142 7.17562 16.0142 16.0531 0 1.59521-.231131 3.13547-.661712 4.58902Zm-3.8496 6.58866c-.140637.145417-.284.288168-.430008.428172l48.372 83.9839c.205511-.05933.412193-.11457.619911-.165681v-42.8394c-4.07599-1.01564-7.74869-3.62171-10.0032-7.55307 -2.24714-3.91859-2.66732-8.3878-1.52247-12.4184l-37.0363-21.4355Zm-22.5657.437879c-.155489-.148834-.307986-.300782-.457392-.455744l-37.0259 21.4295c1.15332 4.03685.735927 8.51599-1.51566 12.4423 -2.25447 3.93137-5.92717 6.53744-10.0032 7.55307v42.8435c.2114.052336.421733.108962.630862.16984l48.3712-83.9825Zm15.5373 3.80465c-1.41961.412106-2.92095.632935-4.47454.632935 -1.54867 0-3.04543-.219434-4.46107-.629029l-48.3695 83.9794c1.07691 1.02997 2.02879 2.22859 2.81471 3.58496 .778855 1.35817 1.33824 2.78249 1.68905 4.23177h96.6544c.35087-1.45017.909974-2.87471 1.68819-4.23177 .782829-1.3651 1.73666-2.57042 2.81899-3.60483l-48.3603-83.9635Zm7.3685 121.785l36.7959-21.2963c-.110389-.347533-.209038-.698731-.295773-1.05293h-96.6904c-.0512722.208105-.10667.415182-.16616.621096l36.9764 21.4008c2.91141-3.0288 7.00157-4.91083 11.537-4.91083 4.6967 0 8.91588 2.01822 11.843 5.23818Z" transform="matrix(1 0 0 1 3555 1281)"></path></g></svg>