<svg width="779" height="526" viewBox="0 0 779 526" fill="none" xmlns="http://www.w3.org/2000/svg">
<g clip-path="url(#clip0)">
<path fill-rule="evenodd" clip-rule="evenodd" d="M640.52 474.395C833.485 321.271 608.121 154.882 512.875 256.938C608.893 -72.1138 10.2051 -97.2408 145.913 252.109C145.913 252.109 -83.8492 259.838 56.5581 462.796L640.52 474.395ZM661.255 467.034C661.255 467.034 732.519 427.762 726.68 338.368C726.68 338.368 726.471 336.072 728.042 335.967C729.6 335.862 754.406 408.028 701.887 461.497L661.255 467.034Z" fill="#F0EEF6"/>
<path fill-rule="evenodd" clip-rule="evenodd" d="M15.7561 462.6H755.453C760.297 462.6 764.275 466.558 764.275 471.408C764.275 476.258 760.31 480.217 755.453 480.217H725.693C723.002 480.217 720.797 482.419 720.797 485.106C720.797 487.793 723.002 489.995 725.693 489.995H736.589C739.963 489.995 742.72 492.748 742.72 496.116C742.72 499.485 739.963 502.238 736.589 502.238H35.6046C32.2308 502.238 29.4741 499.485 29.4741 496.116C29.4741 492.748 32.2308 489.995 35.6046 489.995H44.1767C46.8678 489.995 49.0732 487.793 49.0732 485.106C49.0732 482.419 46.8678 480.217 44.1767 480.217H15.7561C10.899 480.217 6.93454 476.245 6.93454 471.408C6.93454 466.571 10.9121 462.6 15.7561 462.6ZM20.3506 502.251C23.58 502.251 26.2317 499.603 26.2317 496.378V495.893C26.2317 492.669 23.58 490.021 20.3506 490.021C17.1213 490.021 14.4696 492.669 14.4696 495.893V496.378C14.4696 499.603 17.1213 502.251 20.3506 502.251Z" fill="#01051A"/>
<path fill-rule="evenodd" clip-rule="evenodd" d="M246.304 86.9143C246.304 86.3763 246.736 85.9302 247.286 85.9302C247.823 85.9302 248.268 86.3632 248.268 86.9143V91.323C248.268 91.8609 247.836 92.307 247.286 92.307C246.749 92.307 246.304 91.874 246.304 91.323V86.9143ZM239.654 90.4963C239.275 90.1158 239.275 89.4991 239.654 89.1055C240.034 88.725 240.649 88.725 241.029 89.1055L244.131 92.2152C244.511 92.5957 244.511 93.2124 244.131 93.606C243.752 93.9865 243.136 93.9865 242.757 93.606L239.654 90.4963ZM237.468 97.7392C236.931 97.7392 236.486 97.3062 236.486 96.7551C236.486 96.2171 236.918 95.771 237.468 95.771H241.867C242.403 95.771 242.848 96.204 242.848 96.7551C242.848 97.2931 242.416 97.7392 241.867 97.7392H237.468ZM241.029 104.405C240.649 104.785 240.034 104.785 239.654 104.405C239.275 104.024 239.275 103.407 239.654 103.014L242.757 99.9042C243.136 99.5237 243.752 99.5237 244.131 99.9042C244.511 100.285 244.511 100.901 244.131 101.295L241.029 104.405ZM248.255 106.596C248.255 107.134 247.823 107.58 247.273 107.58C246.736 107.58 246.291 107.147 246.291 106.596V102.2C246.291 101.662 246.723 101.216 247.273 101.216C247.81 101.216 248.255 101.649 248.255 102.2V106.596ZM254.918 103.027C255.297 103.408 255.297 104.024 254.918 104.418C254.538 104.798 253.923 104.798 253.543 104.418L250.441 101.308C250.061 100.928 250.061 100.311 250.441 99.9173C250.82 99.5368 251.436 99.5368 251.828 99.9173L254.918 103.027ZM257.104 95.7841C257.64 95.7841 258.086 96.2171 258.086 96.7682C258.086 97.3062 257.654 97.7523 257.104 97.7523H252.705C252.169 97.7523 251.724 97.3193 251.724 96.7682C251.724 96.2302 252.156 95.7841 252.705 95.7841H257.104ZM253.53 89.1055C253.91 88.725 254.525 88.725 254.905 89.1055C255.284 89.486 255.284 90.1027 254.905 90.4963L251.802 93.606C251.423 93.9865 250.807 93.9865 250.415 93.606C250.035 93.2255 250.035 92.6088 250.415 92.2152L253.53 89.1055Z" fill="white"/>
<path fill-rule="evenodd" clip-rule="evenodd" d="M721.693 119.691C721.693 119.153 722.125 118.707 722.675 118.707C723.212 118.707 723.657 119.14 723.657 119.691V124.1C723.657 124.638 723.225 125.084 722.675 125.084C722.138 125.084 721.693 124.651 721.693 124.1V119.691ZM715.03 123.26C714.65 122.879 714.65 122.263 715.03 121.882C715.41 121.502 716.025 121.502 716.404 121.882L719.507 124.992C719.887 125.372 719.887 125.989 719.507 126.383C719.127 126.763 718.512 126.763 718.132 126.383L715.03 123.26ZM712.844 130.516C712.307 130.516 711.862 130.083 711.862 129.532C711.862 128.994 712.294 128.548 712.844 128.548H717.242C717.779 128.548 718.224 128.981 718.224 129.532C718.224 130.07 717.792 130.516 717.242 130.516H712.844ZM716.418 137.181C716.038 137.562 715.423 137.562 715.043 137.181C714.664 136.801 714.664 136.184 715.043 135.804L718.146 132.694C718.525 132.314 719.14 132.314 719.52 132.694C719.9 133.075 719.9 133.691 719.52 134.085L716.418 137.181ZM723.643 139.373C723.643 139.911 723.212 140.357 722.662 140.357C722.125 140.357 721.68 139.924 721.68 139.373V134.964C721.68 134.426 722.112 133.98 722.662 133.98C723.198 133.98 723.643 134.413 723.643 134.964V139.373ZM730.293 135.804C730.673 136.184 730.673 136.801 730.293 137.181C729.914 137.562 729.298 137.562 728.919 137.181L725.816 134.072C725.437 133.691 725.437 133.075 725.816 132.681C726.196 132.3 726.811 132.3 727.191 132.681L730.293 135.804ZM732.479 128.548C733.016 128.548 733.461 128.981 733.461 129.532C733.461 130.07 733.029 130.516 732.479 130.516H728.094C727.557 130.516 727.112 130.083 727.112 129.532C727.112 128.994 727.544 128.548 728.094 128.548H732.479ZM728.919 121.882C729.298 121.502 729.914 121.502 730.293 121.882C730.673 122.263 730.673 122.879 730.293 123.26L727.191 126.37C726.811 126.75 726.196 126.75 725.816 126.37C725.437 125.989 725.437 125.372 725.816 124.979L728.919 121.882Z" fill="#C8BFDE"/>
<path fill-rule="evenodd" clip-rule="evenodd" d="M50.5365 59.5436C50.5365 59.0056 50.9685 58.5595 51.5183 58.5595C52.055 58.5595 52.5001 58.9925 52.5001 59.5436V63.9523C52.5001 64.4903 52.0681 64.9364 51.5183 64.9364C50.9816 64.9364 50.5365 64.5034 50.5365 63.9523V59.5436ZM43.8866 63.1125C43.507 62.732 43.507 62.1153 43.8866 61.7348C44.2662 61.3543 44.8815 61.3543 45.2611 61.7348L48.3635 64.8445C48.7431 65.225 48.7431 65.8417 48.3635 66.2223C47.9839 66.6028 47.3687 66.6028 46.9759 66.2223L43.8866 63.1125ZM41.7005 70.3554C41.1638 70.3554 40.7188 69.9224 40.7188 69.3713C40.7188 68.8334 41.1507 68.3872 41.7005 68.3872H46.0989C46.6356 68.3872 47.0807 68.8202 47.0807 69.3713C47.0807 69.9093 46.6487 70.3554 46.0989 70.3554H41.7005ZM45.2611 77.0209C44.8815 77.4015 44.2662 77.4015 43.8866 77.0209C43.507 76.6404 43.507 76.0237 43.8866 75.6432L46.989 72.5335C47.3687 72.153 47.9839 72.153 48.3766 72.5335C48.7562 72.914 48.7562 73.5307 48.3766 73.9112L45.2611 77.0209ZM52.5001 79.2122C52.5001 79.7501 52.0681 80.1963 51.5183 80.1963C50.9816 80.1963 50.5365 79.7633 50.5365 79.2122V74.8035C50.5365 74.2655 50.9685 73.8194 51.5183 73.8194C52.055 73.8194 52.5001 74.2524 52.5001 74.8035V79.2122ZM59.15 75.6432C59.5296 76.0237 59.5296 76.6404 59.15 77.0209C58.7704 77.4015 58.1551 77.4015 57.7755 77.0209L54.6731 73.9112C54.2935 73.5307 54.2935 72.914 54.6731 72.5335C55.0527 72.153 55.6679 72.153 56.0607 72.5335L59.15 75.6432ZM61.3361 68.4004C61.8728 68.4004 62.3179 68.8334 62.3179 69.3844C62.3179 69.9224 61.8859 70.3685 61.3361 70.3685H56.9508C56.4141 70.3685 55.969 69.9355 55.969 69.3844C55.969 68.8465 56.401 68.4004 56.9508 68.4004H61.3361ZM57.7624 61.7217C58.142 61.3412 58.7573 61.3412 59.1369 61.7217C59.5165 62.1022 59.5165 62.7189 59.1369 63.0994L56.0345 66.2091C55.6549 66.5896 55.0396 66.5896 54.6469 66.2091C54.2673 65.8286 54.2673 65.2119 54.6469 64.8314L57.7624 61.7217Z" fill="#C8BFDE"/>
<path fill-rule="evenodd" clip-rule="evenodd" d="M550.366 137.352H555.89C556.898 137.352 557.736 138.179 557.736 139.202V144.739C557.736 145.749 556.911 146.589 555.89 146.589H550.366C549.358 146.589 548.52 145.763 548.52 144.739V139.202C548.52 138.179 549.358 137.352 550.366 137.352Z" fill="#DCD7EB"/>
<path fill-rule="evenodd" clip-rule="evenodd" d="M569.242 137.352H574.767C575.775 137.352 576.612 138.179 576.612 139.202V144.739C576.612 145.749 575.788 146.589 574.767 146.589H569.242C568.234 146.589 567.397 145.763 567.397 144.739V139.202C567.397 138.179 568.221 137.352 569.242 137.352Z" fill="#DCD7EB"/>
<path fill-rule="evenodd" clip-rule="evenodd" d="M588.106 137.352H593.63C594.638 137.352 595.476 138.179 595.476 139.202V144.739C595.476 145.749 594.651 146.589 593.63 146.589H588.106C587.098 146.589 586.26 145.763 586.26 144.739V139.202C586.273 138.179 587.098 137.352 588.106 137.352Z" fill="#DCD7EB"/>
<path fill-rule="evenodd" clip-rule="evenodd" d="M606.982 137.352H612.506C613.514 137.352 614.352 138.179 614.352 139.202V144.739C614.352 145.749 613.527 146.589 612.506 146.589H606.982C605.974 146.589 605.136 145.763 605.136 144.739V139.202C605.149 138.179 605.974 137.352 606.982 137.352Z" fill="#DCD7EB"/>
<path fill-rule="evenodd" clip-rule="evenodd" d="M571.788 67.4558C574.262 67.4558 576.632 67.9019 578.831 68.7154C579.826 67.6263 581.253 66.9309 582.85 66.9309C583.596 66.9309 584.303 67.0753 584.944 67.3508C585.298 62.6797 589.198 58.9926 593.95 58.9926C596.019 58.9926 597.917 59.6881 599.435 60.8558C600.417 59.5175 601.988 58.6384 603.768 58.6384C604.069 58.6384 604.357 58.6646 604.645 58.704C604.043 57.2869 603.703 55.7386 603.703 54.1116C603.703 47.656 608.926 42.4206 615.366 42.4206C616.57 42.4206 617.722 42.6043 618.809 42.9455C619.647 41.1348 621.479 39.8883 623.6 39.8883H623.757C623.731 39.4684 623.718 39.0485 623.718 38.6155C623.718 27.0164 633.104 17.6086 644.676 17.6086C656.247 17.6086 665.633 27.0164 665.633 38.6155C665.633 38.773 665.633 38.9435 665.633 39.101C666.641 38.8386 667.701 38.7074 668.788 38.7074C670.961 38.7074 673.003 39.2453 674.783 40.2032C677.847 36.0307 682.769 33.3146 688.332 33.3146C697.6 33.3146 705.114 40.8461 705.114 50.1359C705.114 51.9597 704.826 53.7179 704.289 55.3712C704.459 55.3581 704.629 55.3581 704.8 55.3581C709.368 55.3581 713.06 59.0714 713.06 63.6375C713.06 64.1755 713.007 64.7003 712.916 65.2121C712.968 65.2121 713.034 65.2121 713.086 65.2121C715.665 65.2121 717.772 67.259 717.851 69.8307C718.571 69.6995 719.304 69.6208 720.063 69.6208C723.048 69.6208 725.836 70.6573 727.839 72.5599C733.206 77.6509 727.341 78.9761 721.699 78.9761H714.329H708.543H590.023H580.768H565.57C559.68 78.9761 551.276 79.9471 557.114 73.767C560.805 69.8832 566.015 67.4558 571.788 67.4558Z" fill="#F0EEF6"/>
<path fill-rule="evenodd" clip-rule="evenodd" d="M192.534 125.017C185.36 125.017 178.475 126.316 172.126 128.678C169.259 125.502 165.109 123.508 160.489 123.508C158.342 123.508 156.287 123.941 154.428 124.728C153.394 111.174 142.097 100.493 128.312 100.493C127.265 100.493 126.231 100.559 125.21 100.677C124.844 118.968 124.215 142.993 123.233 158.41H139.649H166.471H210.533C227.603 158.41 251.99 161.218 235.051 143.321C224.37 132.05 209.263 125.017 192.534 125.017Z" fill="white"/>
<path fill-rule="evenodd" clip-rule="evenodd" d="M593.407 284.4C596.143 284.4 598.761 284.899 601.196 285.804C602.296 284.597 603.866 283.836 605.634 283.836C606.458 283.836 607.231 284.007 607.951 284.296C608.343 279.126 612.65 275.058 617.912 275.058C620.19 275.058 622.298 275.832 623.973 277.118C625.047 275.636 626.801 274.665 628.764 274.665C629.092 274.665 629.419 274.691 629.733 274.743C629.065 273.182 628.699 271.463 628.699 269.665C628.699 262.528 634.472 256.741 641.593 256.741C642.915 256.741 644.198 256.938 645.402 257.318C646.332 255.324 648.361 253.933 650.704 253.933H650.874C650.848 253.474 650.835 253.002 650.835 252.529C650.835 239.71 661.202 229.318 673.992 229.318C686.781 229.318 697.149 239.71 697.149 252.529C697.149 252.713 697.149 252.884 697.135 253.067C698.261 252.779 699.426 252.634 700.631 252.634C703.026 252.634 705.278 253.225 707.267 254.274C710.645 249.656 716.09 246.664 722.243 246.664C732.493 246.664 740.792 254.996 740.792 265.257C740.792 267.277 740.465 269.219 739.875 271.043C740.059 271.03 740.255 271.03 740.438 271.03C745.491 271.03 749.575 275.137 749.575 280.189C749.575 280.779 749.523 281.369 749.405 281.934C749.471 281.934 749.536 281.934 749.602 281.934C752.455 281.934 754.772 284.204 754.864 287.038C755.649 286.88 756.474 286.802 757.312 286.802C760.611 286.802 763.687 287.956 765.912 290.056C771.842 295.685 765.362 297.141 759.118 297.141H750.976H744.588H613.58H603.356H586.561C580.055 297.141 570.748 298.217 577.214 291.394C581.272 287.077 587.032 284.4 593.407 284.4Z" fill="white"/>
<path fill-rule="evenodd" clip-rule="evenodd" d="M31.2544 102.961H36.7785C37.7865 102.961 38.6243 103.788 38.6243 104.812V110.349C38.6243 111.359 37.7996 112.199 36.7785 112.199H31.2544C30.2465 112.199 29.4218 111.372 29.4218 110.349V104.812C29.4087 103.788 30.2334 102.961 31.2544 102.961Z" fill="#DCD7EB"/>
<path fill-rule="evenodd" clip-rule="evenodd" d="M50.1307 102.961H55.6549C56.6628 102.961 57.5006 103.788 57.5006 104.812V110.349C57.5006 111.359 56.6759 112.199 55.6549 112.199H50.1307C49.1228 112.199 48.285 111.372 48.285 110.349V104.812C48.285 103.788 49.1097 102.961 50.1307 102.961Z" fill="#DCD7EB"/>
<path fill-rule="evenodd" clip-rule="evenodd" d="M68.9939 102.961H74.5181C75.526 102.961 76.3638 103.788 76.3638 104.812V110.349C76.3638 111.359 75.5391 112.199 74.5181 112.199H68.9939C67.986 112.199 67.1482 111.372 67.1482 110.349V104.812C67.1613 103.788 67.986 102.961 68.9939 102.961Z" fill="#DCD7EB"/>
<path fill-rule="evenodd" clip-rule="evenodd" d="M87.8703 102.961H93.3944C94.4024 102.961 95.227 103.788 95.227 104.812V110.349C95.227 111.359 94.4024 112.199 93.3944 112.199H87.8703C86.8623 112.199 86.0245 111.372 86.0245 110.349V104.812C86.0245 103.788 86.8623 102.961 87.8703 102.961Z" fill="#DCD7EB"/>
<path fill-rule="evenodd" clip-rule="evenodd" d="M251.16 459.292H485.988L515.637 513.417C336.744 480.141 403.963 477.097 226.393 515.083C235.661 492.764 244.025 474.25 251.16 459.292Z" fill="#313254"/>
<path fill-rule="evenodd" clip-rule="evenodd" d="M532.328 338.407C551.453 326.611 561.781 318.896 562.671 318.332C564.753 317.02 564.242 314.317 562.174 314.277C560.105 314.238 554.346 316.35 553.6 316.757C552.853 317.177 552.88 316.429 552.88 316.429C555.864 306.706 547.355 303.452 545.065 303.085C542.774 302.704 540.941 303.584 540.836 304.83C540.732 306.077 542.447 306.759 542.447 306.759C547.787 307.861 548.638 312.755 546.243 315.721C543.847 318.673 539.135 319.854 535.98 316.416C532.812 312.978 535.77 309.108 536.935 308.005C538.101 306.903 539.279 305.722 538.258 304.436C537.223 303.151 535.927 304.108 535.927 304.108C524.264 310.866 528.885 320.379 528.885 320.379C528.885 320.379 529.723 323.646 526.934 325.181C526.659 325.338 525.94 325.653 524.892 326.099L532.328 338.407Z" fill="#F4AD85"/>
<path fill-rule="evenodd" clip-rule="evenodd" d="M387.09 216.157C374.484 210.699 362.297 210.699 349.704 216.157L351.89 221.996H384.917L387.09 216.157Z" fill="#ACB5DB"/>
<path fill-rule="evenodd" clip-rule="evenodd" d="M384.184 184.011L383.726 194.652C383.726 194.652 383.726 216.446 383.726 219.766C383.726 221.366 385.218 223.676 387.836 225.683C385.532 228.176 381.265 232.624 376.893 236.049H360.53C356.17 232.611 351.89 228.176 349.586 225.683C352.217 223.676 353.696 221.366 353.696 219.766C353.696 216.459 353.696 194.652 353.696 194.652L353.238 184.011C353.238 184.011 360.844 185.375 368.698 187.304C376.578 185.388 384.184 184.011 384.184 184.011Z" fill="#E8685B"/>
<path fill-rule="evenodd" clip-rule="evenodd" d="M373.489 237.991L370.491 238.424H368.737H366.983L363.985 237.991L346.3 221.209L316.31 235.892L316.323 235.905C316.323 235.905 311.074 261.661 311.074 294.176L311.912 308.333C312.161 312.178 312.409 315.878 312.658 319.447L312.815 326.677C312.815 326.677 310.145 383.36 310.773 385.8C311.401 388.241 316.494 394.041 316.494 394.041C316.297 395.576 316.075 397.216 315.839 398.935C325.015 402.792 342.059 407.739 368.75 407.516C395.428 407.739 412.485 402.792 421.662 398.935C421.426 397.216 421.203 395.576 421.007 394.041C421.007 394.041 426.099 388.241 426.728 385.8C427.356 383.36 424.699 326.677 424.699 326.677L424.843 319.447C425.091 315.878 425.34 312.178 425.589 308.333L426.426 294.176C426.426 261.675 421.177 235.905 421.177 235.905L421.19 235.892L391.187 221.209L373.489 237.991Z" fill="#333258"/>
<path fill-rule="evenodd" clip-rule="evenodd" d="M311.061 293.1C311.061 293.454 311.061 293.821 311.061 294.176L311.899 308.333C312.148 312.178 312.396 315.878 312.645 319.447L312.802 326.677L312.763 327.516C313.273 316.849 315.054 285.319 314.203 286.775C314.006 287.13 312.841 289.491 311.061 293.1ZM310.773 376.563C314.582 382.087 324.597 389.855 350.947 391.43C392.706 393.936 407.956 378.4 410.208 364.111C412.459 349.822 430.144 259.09 388.412 230.394C386.972 229.41 385.676 228.452 384.511 227.533L391.174 221.222L421.177 235.905L421.164 235.918C421.164 235.918 421.374 236.954 421.714 238.857C421.282 246.808 421.622 259.628 425.837 275.216C426.191 281.146 426.413 287.523 426.413 294.189L425.576 308.346C425.327 312.191 425.078 315.891 424.829 319.46L424.686 326.69C424.686 326.69 427.356 383.373 426.714 385.814C426.086 388.254 420.994 394.054 420.994 394.054C421.19 395.589 421.413 397.229 421.649 398.948C412.472 402.805 395.429 407.752 368.737 407.529C342.059 407.752 325.002 402.805 315.826 398.948C316.062 397.229 316.284 395.589 316.481 394.054C316.481 394.054 311.388 388.254 310.76 385.814C310.603 385.236 310.642 381.68 310.773 376.563Z" fill="#262649"/>
<path fill-rule="evenodd" clip-rule="evenodd" d="M372.795 235.209L370.086 235.603H366.721L364.012 235.209L353.278 225.027L351.667 225.526L348.225 230.066C348.225 230.066 356.053 248.265 356.511 248.882C356.969 249.498 357.794 249.8 358.959 248.37C360.137 246.94 363.841 242.255 363.841 242.255C363.841 242.255 364.915 241.127 365.412 242.4C365.91 243.673 371.447 240.169 371.447 240.169L371.84 241.403C371.84 241.403 372.677 240.379 373.515 241.704C374.34 243.03 378.437 248.764 378.725 249.013C379 249.275 380.257 250.115 381.121 248.317C381.919 246.677 391.227 225.723 392.863 222.062L388.766 220.054L372.795 235.209Z" fill="#1F1F40"/>
<path fill-rule="evenodd" clip-rule="evenodd" d="M372.795 235.209L370.086 235.603H366.721L364.012 235.209L362.938 234.199L360.687 238.109C360.687 238.109 365.726 239.749 365.726 244.184C365.726 248.619 365.726 403.855 365.726 403.855L368.397 410.521L371.08 403.855C371.08 403.855 371.08 248.632 371.08 244.184C371.08 239.749 376.12 238.109 376.12 238.109L373.869 234.199L372.795 235.209Z" fill="#1F1F40"/>
<path fill-rule="evenodd" clip-rule="evenodd" d="M365.098 233.897L366.721 233.622C366.721 233.622 367.049 233.963 367.088 234.553C367.14 235.144 367.166 236.863 367.166 236.863C366.577 237.072 363.383 237.729 363.488 237.269C363.514 237.177 365.098 233.897 365.098 233.897Z" fill="#1F1F40"/>
<path fill-rule="evenodd" clip-rule="evenodd" d="M371.709 233.897L370.086 233.622C370.086 233.622 369.771 233.963 369.719 234.553C369.667 235.144 369.64 236.863 369.64 236.863C370.23 237.335 373.424 237.729 373.319 237.269C373.28 237.177 371.709 233.897 371.709 233.897Z" fill="#1F1F40"/>
<path fill-rule="evenodd" clip-rule="evenodd" d="M387.09 216.157C387.273 216.315 389.276 219.858 390.323 221.55C390.323 221.55 391.266 222.954 390.572 225.29C389.878 227.638 380.754 246.913 380.754 246.913C380.754 246.913 380.1 247.937 379.066 246.94C378.018 245.942 370.073 233.635 370.073 233.635L385.139 217.706C385.859 216.8 386.907 216 387.09 216.157Z" fill="white"/>
<path fill-rule="evenodd" clip-rule="evenodd" d="M349.704 216.157C349.573 216.223 347.518 219.858 346.471 221.55C346.471 221.55 345.528 222.954 346.222 225.29C346.916 227.638 356.04 246.913 356.04 246.913C356.04 246.913 356.694 247.937 357.728 246.94C358.775 245.942 366.721 233.635 366.721 233.635L351.654 217.706C350.646 216.512 349.835 216.092 349.704 216.157Z" fill="white"/>
<path fill-rule="evenodd" clip-rule="evenodd" d="M323.065 290.804H352.793C353.186 290.804 353.5 291.118 353.5 291.512V293.415C353.5 293.808 353.186 294.123 352.793 294.123H323.065C322.672 294.123 322.358 293.808 322.358 293.415V291.512C322.358 291.118 322.672 290.804 323.065 290.804Z" fill="white"/>
<path fill-rule="evenodd" clip-rule="evenodd" d="M489.286 380.382C489.286 380.382 393.399 399.84 367.035 399.84C340.685 399.84 244.785 380.382 244.785 380.382L249.536 399.25L367.035 433.443L484.535 399.25L489.286 380.382Z" fill="#525475"/>
<path fill-rule="evenodd" clip-rule="evenodd" d="M278.44 457.652L283.611 456.983C283.611 456.983 290.431 455.106 292.577 454.424C294.724 453.742 300.667 455.015 302.618 464.974C304.568 474.946 299.398 476.992 293.651 478.462C287.904 479.932 273.178 484.327 273.178 484.327C273.178 484.327 265.873 468.595 278.44 457.652Z" fill="#F09373"/>
<path fill-rule="evenodd" clip-rule="evenodd" d="M273.178 480.758C273.178 480.758 274.395 480.509 277.131 480.509C279.854 480.509 280.011 482.267 280.299 483.737C280.587 485.206 281.804 489.011 277.275 490.822C272.746 492.633 245.753 502.251 245.753 502.251L240.779 499.666C240.779 499.653 255.584 485.98 273.178 480.758Z" fill="#3B3B61"/>
<path fill-rule="evenodd" clip-rule="evenodd" d="M267.405 442.851C267.405 442.851 274.199 445.685 282.485 452.522C282.485 452.522 284.579 454.568 283.414 457.547C282.249 460.525 270.69 465.512 274.788 482.11C274.788 482.11 275.77 484.747 272.942 485.731C270.114 486.702 250.715 494.43 248.28 496.084C245.845 497.75 245.937 499.692 245.74 502.238C245.544 504.783 241.643 504.193 234.626 511.619C227.61 519.046 220.476 522.956 214.912 519.098C214.912 519.098 212.399 518.167 211.627 515.136C210.841 512.105 213.184 502.343 213.184 502.343L243.305 458.479L267.405 442.851Z" fill="#1F1F40"/>
<path fill-rule="evenodd" clip-rule="evenodd" d="M267.405 442.851C267.405 442.851 254.144 458.977 250.636 463.556C247.128 468.149 241.577 469.421 236.21 475.182C230.856 480.942 218.761 496.674 214.965 504.875C211.168 513.075 213.302 517.773 214.912 519.085C214.912 519.085 211.967 519.912 211.352 519.702C210.736 519.479 208.747 514.768 208.446 510.372C208.158 505.977 214.978 491.124 221.798 481.939C228.618 472.754 236.511 465.433 243.528 456.34C250.544 447.26 255.322 439.978 257.469 438.023C259.616 436.068 260.637 436.172 261.658 436.264C262.679 436.356 266.868 440.463 267.365 441.145C267.876 441.854 267.405 442.851 267.405 442.851Z" fill="white"/>
<path fill-rule="evenodd" clip-rule="evenodd" d="M212.988 519.57C212.294 519.715 211.627 519.807 211.378 519.715C210.763 519.492 208.773 514.781 208.472 510.386C208.184 505.99 215.004 491.137 221.824 481.952C228.644 472.767 236.538 465.446 243.554 456.353C250.57 447.273 255.348 439.991 257.495 438.036C259.642 436.081 260.663 436.186 261.684 436.278C261.985 436.304 262.535 436.671 263.19 437.183C263.19 437.183 260.558 436.396 255.636 442.851C250.714 449.294 241.734 462.113 229.862 474.893C217.989 487.686 210.763 503.13 209.886 510.163C209.611 512.288 210.972 515.765 212.988 519.57Z" fill="#333258"/>
<path fill-rule="evenodd" clip-rule="evenodd" d="M287.014 453.65C287.014 453.65 472.583 385.853 481.93 382.337C491.289 378.82 504.537 378.033 508.241 389.566C511.946 401.087 514.472 427.67 479.783 437.432C445.08 447.207 296.753 480.614 291.687 481.388C286.621 482.162 284.972 460.394 285.404 456.484C285.417 456.484 285.797 454.372 287.014 453.65Z" fill="#626585"/>
<path fill-rule="evenodd" clip-rule="evenodd" d="M287.014 453.65C287.014 453.65 333.982 436.487 381.841 418.984C385.611 422.369 392.928 426.765 407.092 430.78C435.341 438.797 470.685 428.313 488.108 424.259C505.113 420.309 510.323 404.498 510.244 400.457C510.912 413.263 505.859 430.084 479.796 437.419C445.093 447.194 296.766 480.601 291.7 481.375C286.634 482.149 284.985 460.381 285.417 456.471C285.417 456.484 285.797 454.372 287.014 453.65Z" fill="#525475"/>
<path fill-rule="evenodd" clip-rule="evenodd" d="M455.644 457.652L450.474 456.983C450.474 456.983 443.653 455.106 441.507 454.424C439.36 453.742 433.417 455.015 431.466 464.974C429.516 474.946 434.687 476.992 440.433 478.462C446.18 479.932 460.894 484.327 460.894 484.327C460.894 484.327 468.224 468.595 455.644 457.652Z" fill="#F09373"/>
<path fill-rule="evenodd" clip-rule="evenodd" d="M460.906 480.758C460.906 480.758 459.689 480.509 456.953 480.509C454.23 480.509 454.073 482.267 453.785 483.737C453.497 485.206 452.28 489.011 456.809 490.822C461.338 492.633 488.331 502.251 488.331 502.251L493.305 499.666C493.318 499.653 478.5 485.98 460.906 480.758Z" fill="#3B3B61"/>
<path fill-rule="evenodd" clip-rule="evenodd" d="M466.679 442.851C466.679 442.851 459.885 445.685 451.599 452.522C451.599 452.522 449.505 454.568 450.67 457.547C451.835 460.525 463.394 465.512 459.296 482.11C459.296 482.11 458.328 484.747 461.155 485.731C463.983 486.702 483.37 494.43 485.817 496.084C488.252 497.75 488.161 499.692 488.357 502.238C488.553 504.783 492.454 504.193 499.471 511.619C506.487 519.046 513.621 522.956 519.185 519.098C519.185 519.098 521.698 518.167 522.471 515.136C523.256 512.105 520.913 502.343 520.913 502.343L490.805 458.479L466.679 442.851Z" fill="#1F1F40"/>
<path fill-rule="evenodd" clip-rule="evenodd" d="M466.679 442.851C466.679 442.851 479.94 458.977 483.448 463.556C486.956 468.149 492.507 469.421 497.874 475.182C503.228 480.942 515.323 496.674 519.119 504.875C522.916 513.075 520.782 517.773 519.172 519.085C519.172 519.085 522.117 519.912 522.732 519.702C523.348 519.479 525.337 514.768 525.638 510.372C525.926 505.977 519.106 491.124 512.286 481.939C505.466 472.754 497.573 465.433 490.556 456.34C483.54 447.26 478.762 439.978 476.615 438.023C474.468 436.068 473.447 436.172 472.426 436.264C471.405 436.356 467.216 440.463 466.719 441.145C466.221 441.854 466.679 442.851 466.679 442.851Z" fill="white"/>
<path fill-rule="evenodd" clip-rule="evenodd" d="M521.109 519.57C521.803 519.715 522.471 519.807 522.719 519.715C523.335 519.492 525.324 514.781 525.625 510.386C525.913 505.99 519.093 491.137 512.273 481.952C505.453 472.767 497.56 465.446 490.543 456.353C483.527 447.273 478.749 439.991 476.602 438.036C474.455 436.081 473.434 436.186 472.413 436.278C472.125 436.304 471.562 436.671 470.908 437.183C470.908 437.183 473.539 436.396 478.461 442.851C483.383 449.294 492.363 462.113 504.236 474.893C516.109 487.686 523.335 503.13 524.212 510.163C524.473 512.288 523.125 515.765 521.109 519.57Z" fill="#333258"/>
<path fill-rule="evenodd" clip-rule="evenodd" d="M447.07 453.65C447.07 453.65 261.501 385.853 252.154 382.337C242.795 378.82 229.547 378.033 225.843 389.566C222.138 401.087 219.599 427.67 254.301 437.432C288.991 447.207 437.331 480.614 442.397 481.388C447.463 482.162 449.112 460.394 448.68 456.484C448.68 456.484 448.301 454.372 447.07 453.65Z" fill="#717697"/>
<path fill-rule="evenodd" clip-rule="evenodd" d="M224.992 392.624C221.968 405.259 222.4 428.444 254.301 437.432C288.991 447.207 437.331 480.614 442.397 481.388C445.525 481.874 447.345 473.791 448.183 466.6C442.986 469.618 434.281 471.573 419.842 468.634C387.836 462.113 285.81 437.301 254.053 423.012C222.636 408.881 224.94 392.952 224.992 392.624Z" fill="#626585"/>
<path fill-rule="evenodd" clip-rule="evenodd" d="M330.919 163.332C330.657 163.371 330.409 163.41 330.147 163.463H330.134C325.46 164.447 321.913 168.554 321.821 173.54C321.717 179.339 326.311 184.129 332.097 184.234C337.883 184.339 342.661 179.733 342.779 173.934C342.844 170.561 341.313 167.53 338.891 165.562C339.153 168.659 338.669 172.503 334.715 172.884L334.833 166.835C334.872 164.394 332.595 163.266 330.919 163.332Z" fill="#E8685B"/>
<path fill-rule="evenodd" clip-rule="evenodd" d="M406.542 163.332C406.804 163.371 407.053 163.41 407.315 163.463H407.328C412.001 164.447 415.548 168.554 415.653 173.54C415.758 179.339 411.163 184.129 405.377 184.234C399.591 184.339 394.813 179.733 394.695 173.934C394.63 170.561 396.162 167.53 398.583 165.562C398.321 168.659 398.806 172.503 402.759 172.884L402.641 166.835C402.589 164.394 404.867 163.266 406.542 163.332Z" fill="#E8685B"/>
<path fill-rule="evenodd" clip-rule="evenodd" d="M368.737 110.86C349.01 110.86 332.857 127.039 332.857 146.825V179.536C332.857 199.31 348.997 215.501 368.737 215.501C388.464 215.501 404.605 199.323 404.605 179.536V146.825C404.605 127.052 388.464 110.86 368.737 110.86Z" fill="#F4AD85"/>
<path fill-rule="evenodd" clip-rule="evenodd" d="M370.806 215.436C389.577 214.347 404.605 198.614 404.605 179.536V146.825C404.605 132.038 395.573 119.258 382.77 113.747C369.405 119.455 337.831 142.417 337.831 142.417L340.959 146.93C340.959 146.93 342.583 141.603 352.466 141.603C362.336 141.603 372.599 141.603 378.162 141.603C383.726 141.603 389.472 143.611 389.472 149.935C389.472 156.259 392.221 162.846 398.099 162.846C398.099 162.846 398.099 175.757 398.099 184.273C398.086 192.789 389.904 213.14 370.806 215.436Z" fill="#F09373"/>
<path fill-rule="evenodd" clip-rule="evenodd" d="M389.067 181.308C386.462 181.255 384.315 183.341 384.262 185.953C384.21 188.564 386.291 190.715 388.883 190.768C391.488 190.82 393.635 188.734 393.688 186.123C393.74 183.525 391.672 181.36 389.067 181.308Z" fill="#E8685B"/>
<path fill-rule="evenodd" clip-rule="evenodd" d="M348.486 180.534C345.881 180.481 343.735 182.567 343.682 185.178C343.63 187.79 345.698 189.941 348.316 189.994C350.921 190.046 353.068 187.973 353.12 185.349C353.173 182.751 351.091 180.586 348.486 180.534Z" fill="#E8685B"/>
<path fill-rule="evenodd" clip-rule="evenodd" d="M346.51 163.778C345.881 164.093 345.109 163.83 344.808 163.214C344.494 162.584 344.756 161.81 345.371 161.508C348.748 159.763 353.264 159.566 356.576 161.547C357.178 161.902 357.375 162.702 357.008 163.292C356.655 163.896 355.856 164.093 355.254 163.725C352.584 162.125 349.22 162.479 346.51 163.778Z" fill="#1F1F40"/>
<path fill-rule="evenodd" clip-rule="evenodd" d="M392.313 163.778C389.59 162.479 386.239 162.125 383.556 163.725C382.953 164.093 382.168 163.883 381.815 163.292C381.461 162.689 381.657 161.902 382.246 161.547C385.558 159.553 390.075 159.763 393.452 161.495C394.08 161.81 394.329 162.584 394.015 163.214C393.701 163.843 392.941 164.093 392.313 163.778Z" fill="#1F1F40"/>
<path fill-rule="evenodd" clip-rule="evenodd" d="M354.089 137.168C350.227 137.168 342.753 139.005 342.753 146.734C342.753 154.462 341.287 160.603 336.365 160.603C336.365 160.603 336.365 163.279 336.365 166.665C336.365 170.05 336.038 173.488 332.843 173.488C332.843 166.192 330.631 163.319 330.631 163.319C330.631 163.319 330.631 153.557 330.631 145.028C330.631 136.499 333.027 125.031 344.193 117.172C358.645 106.99 378.791 106.99 393.256 117.172C404.435 125.031 406.817 136.499 406.817 145.028C406.817 153.557 406.817 163.319 406.817 163.319C406.817 163.319 404.605 166.192 404.605 173.488C401.411 173.488 401.084 170.063 401.084 166.665C401.084 163.266 401.084 160.603 401.084 160.603C396.162 160.603 394.695 154.475 394.695 146.734C394.695 139.005 387.221 137.168 383.359 137.168C373.607 137.168 363.855 137.168 354.089 137.168Z" fill="#555272"/>
<path fill-rule="evenodd" clip-rule="evenodd" d="M397.222 120.439C401.66 124.729 406.896 129.965 407.472 131.461C408.218 133.363 407.21 137.706 406.581 140.33C404.422 149.003 401.097 160.603 401.097 160.603C396.175 160.603 394.709 154.475 394.709 146.734C394.709 141 390.598 138.507 386.907 137.601L386.265 121.987L397.222 120.439Z" fill="#333258"/>
<path fill-rule="evenodd" clip-rule="evenodd" d="M340.24 120.439C335.802 124.729 330.566 129.965 329.99 131.461C329.244 133.363 330.252 137.706 330.88 140.33C333.04 149.003 336.365 160.603 336.365 160.603C341.287 160.603 342.753 154.475 342.753 146.734C342.753 141 346.863 138.507 350.555 137.601L351.196 121.987L340.24 120.439Z" fill="#333258"/>
<path fill-rule="evenodd" clip-rule="evenodd" d="M342.714 139.53C342.714 139.53 334.139 134.373 333.734 127.892C332.974 115.991 349.848 97.0831 365.386 104.615C400.246 88.9611 421.596 112.737 392.064 139.53C391.933 139.648 391.789 139.766 391.658 139.884C389.145 137.798 385.637 137.168 383.372 137.168C373.607 137.168 363.855 137.168 354.089 137.168C351.55 137.168 347.439 137.969 344.926 140.711C343.525 140.002 342.714 139.53 342.714 139.53Z" fill="#262649"/>
<path fill-rule="evenodd" clip-rule="evenodd" d="M335.697 130.791C335.854 131.014 335.815 131.329 335.606 131.487C335.396 131.657 335.108 131.618 334.951 131.395C334.938 131.369 328.864 123.22 336.116 112.527C336.273 112.304 336.561 112.251 336.771 112.422C336.98 112.579 337.032 112.894 336.875 113.117C330.042 123.207 335.684 130.778 335.697 130.791Z" fill="#262649"/>
<path fill-rule="evenodd" clip-rule="evenodd" d="M343.198 111.582C343.041 111.805 342.753 111.844 342.543 111.687C342.334 111.516 342.295 111.215 342.452 110.992C342.478 110.952 351.301 98.1197 360.857 97.9754C370.792 97.8179 368.384 108.722 368.371 108.748C368.318 109.01 368.057 109.181 367.808 109.128C367.559 109.063 367.402 108.8 367.454 108.538C367.454 108.512 369.601 98.8414 360.87 98.9857C351.772 99.1169 343.224 111.556 343.198 111.582Z" fill="#262649"/>
<path fill-rule="evenodd" clip-rule="evenodd" d="M380.61 101.439C380.374 101.544 380.1 101.426 379.995 101.177C379.89 100.928 380.008 100.626 380.244 100.521C380.27 100.508 388.687 96.6239 398.112 99.4712C400.638 100.232 402.811 101.557 404.487 103.289C405.992 104.851 407.092 106.74 407.655 108.84C408.218 110.939 408.231 113.261 407.589 115.663C406.896 118.287 405.403 121.029 402.942 123.719C402.759 123.916 402.471 123.916 402.275 123.732C402.091 123.535 402.078 123.22 402.262 123.024C404.592 120.465 406.019 117.867 406.673 115.387C407.262 113.17 407.249 111.044 406.725 109.115C406.215 107.186 405.207 105.441 403.806 103.998C402.249 102.384 400.206 101.138 397.837 100.429C388.752 97.6736 380.636 101.426 380.61 101.439Z" fill="#262649"/>
<path fill-rule="evenodd" clip-rule="evenodd" d="M337.399 116.043C337.818 115.374 338.263 114.718 338.747 114.075C353.147 125.687 386.737 118.182 378.346 100.429C383.307 99.4712 387.784 99.4187 391.619 100.127C399.316 116.161 358.723 139.911 337.399 116.043Z" fill="#333258"/>
<path fill-rule="evenodd" clip-rule="evenodd" d="M335.435 113.616C335.645 113.261 335.88 112.907 336.129 112.54C336.286 112.317 336.574 112.264 336.784 112.435C336.993 112.592 337.045 112.907 336.888 113.13C336.587 113.576 336.312 114.009 336.064 114.442C335.841 114.167 335.632 113.891 335.435 113.616Z" fill="#333258"/>
<path fill-rule="evenodd" clip-rule="evenodd" d="M380.61 101.439C380.374 101.544 380.1 101.426 379.995 101.177C379.89 100.928 380.008 100.626 380.244 100.521C380.257 100.508 384.642 98.4871 390.611 98.4215C390.847 98.7495 391.056 99.0776 391.253 99.4187C385.166 99.3269 380.623 101.426 380.61 101.439Z" fill="#333258"/>
<path fill-rule="evenodd" clip-rule="evenodd" d="M342.714 139.53C342.714 139.53 334.139 134.373 333.734 127.892C333.563 125.189 334.297 122.131 335.723 119.114C336.797 123.535 340.135 128.01 348.329 130.634C365.779 136.223 407.694 121.436 398.662 102.607C409.2 108.761 409.618 123.614 392.077 139.53C391.946 139.648 391.802 139.766 391.672 139.884C389.158 137.798 385.65 137.168 383.385 137.168C373.62 137.168 363.868 137.168 354.102 137.168C351.563 137.168 347.452 137.969 344.939 140.711C343.525 140.002 342.714 139.53 342.714 139.53Z" fill="#1F1F40"/>
<path fill-rule="evenodd" clip-rule="evenodd" d="M335.697 130.791C335.854 131.014 335.815 131.329 335.605 131.487C335.396 131.657 335.108 131.618 334.951 131.395C334.938 131.369 329.296 123.798 335.383 113.681C335.318 114.377 335.278 115.085 335.304 115.82C331.024 124.533 335.684 130.778 335.697 130.791Z" fill="#1F1F40"/>
<path fill-rule="evenodd" clip-rule="evenodd" d="M396.306 98.9988C396.895 99.13 397.497 99.2874 398.099 99.4711C400.625 100.232 402.798 101.557 404.474 103.289C405.979 104.851 407.079 106.74 407.642 108.84C408.205 110.939 408.218 113.261 407.576 115.663C406.883 118.287 405.39 121.029 402.929 123.719C402.746 123.916 402.458 123.916 402.262 123.732C402.078 123.535 402.065 123.22 402.249 123.024C404.579 120.465 406.006 117.867 406.66 115.387C407.249 113.17 407.236 111.044 406.712 109.115C406.202 107.186 405.194 105.441 403.793 103.998C402.236 102.384 400.193 101.138 397.824 100.429C397.628 100.377 397.444 100.324 397.248 100.272C396.986 99.8385 396.659 99.4187 396.306 98.9988Z" fill="#1F1F40"/>
<path fill-rule="evenodd" clip-rule="evenodd" d="M383.529 170.456C383.516 169.827 383.006 169.328 382.377 169.341C381.749 169.354 381.252 169.866 381.265 170.496C381.278 172.005 381.906 173.369 382.914 174.34C383.922 175.324 385.297 175.915 386.789 175.902C388.294 175.889 389.643 175.259 390.624 174.249C391.606 173.238 392.195 171.86 392.182 170.365C392.169 169.735 391.659 169.236 391.03 169.249C390.402 169.262 389.904 169.774 389.917 170.404C389.931 171.283 389.577 172.097 389.014 172.674C388.438 173.264 387.64 173.632 386.763 173.645C385.886 173.658 385.074 173.304 384.498 172.74C383.909 172.136 383.542 171.349 383.529 170.456Z" fill="#1F1F40"/>
<path fill-rule="evenodd" clip-rule="evenodd" d="M347.531 170.837C347.518 170.207 347.007 169.709 346.379 169.722C345.751 169.735 345.253 170.247 345.266 170.876C345.279 172.385 345.908 173.737 346.916 174.721C347.924 175.705 349.285 176.295 350.79 176.282C352.296 176.269 353.644 175.639 354.626 174.629C355.608 173.619 356.197 172.241 356.184 170.745C356.171 170.115 355.66 169.617 355.032 169.63C354.403 169.643 353.906 170.155 353.919 170.771C353.932 171.651 353.579 172.464 353.016 173.055C352.44 173.645 351.641 174.012 350.764 174.025C349.887 174.039 349.076 173.684 348.5 173.12C347.91 172.53 347.544 171.729 347.531 170.837Z" fill="#1F1F40"/>
<path fill-rule="evenodd" clip-rule="evenodd" d="M365.53 188.905C365.517 188.275 365.007 187.776 364.391 187.789C363.763 187.803 363.266 188.314 363.266 188.944C363.279 190.453 363.92 191.805 364.915 192.789C365.923 193.773 367.297 194.363 368.79 194.35C370.295 194.337 371.643 193.707 372.625 192.697C373.607 191.686 374.196 190.309 374.183 188.813C374.17 188.183 373.659 187.685 373.031 187.698C372.403 187.711 371.905 188.222 371.918 188.839C371.931 189.718 371.578 190.532 371.015 191.122C370.439 191.713 369.64 192.08 368.763 192.08C367.886 192.093 367.075 191.739 366.486 191.175C365.91 190.584 365.543 189.784 365.53 188.905Z" fill="#ED8068"/>
<path fill-rule="evenodd" clip-rule="evenodd" d="M416.779 291.302C416.779 291.302 455.487 366.775 467.151 369.675C478.827 372.574 509.498 354.231 535.024 338.486C535.378 335.35 529.631 323.501 526.555 323.344C517.038 327.359 477.662 344.653 474.926 344.626C472.649 344.613 455.055 298.283 444.845 270.492C439.883 256.977 432.644 240.917 420.902 235.787C420.902 235.8 402.471 240.497 416.779 291.302Z" fill="#333258"/>
<path fill-rule="evenodd" clip-rule="evenodd" d="M416.779 291.302C416.779 291.302 455.487 366.775 467.151 369.675C478.827 372.574 509.498 354.231 535.024 338.486C535.234 336.662 533.375 331.886 531.176 328.186C529.579 335.862 515.664 345.781 502.364 352.447C487.611 359.847 473.604 366.604 468.983 361.973C464.362 357.341 456.731 342.042 436.231 301.943C421.151 272.447 420.955 247.425 421.897 236.246C421.57 236.088 421.243 235.931 420.902 235.787C420.902 235.787 407.838 239.119 412.25 270.492C413.022 273.89 413.65 277.368 414.161 280.884C414.868 284.125 415.732 287.589 416.779 291.302Z" fill="#262649"/>
<path fill-rule="evenodd" clip-rule="evenodd" d="M204.466 338.407C185.341 326.611 173.508 318.266 172.617 317.702C170.536 316.39 171.047 313.687 173.115 313.647C175.183 313.608 182.448 316.337 183.194 316.757C183.941 317.177 183.914 316.429 183.914 316.429C180.93 306.706 189.438 303.452 191.729 303.085C194.02 302.704 195.853 303.584 195.957 304.83C196.062 306.077 194.347 306.759 194.347 306.759C189.006 307.861 188.156 312.755 190.551 315.721C192.947 318.673 197.659 319.854 200.814 316.416C203.982 312.978 201.023 309.108 199.858 308.005C198.693 306.903 197.515 305.722 198.536 304.436C199.57 303.151 200.866 304.108 200.866 304.108C212.53 310.866 207.909 320.379 207.909 320.379C207.909 320.379 207.071 323.646 209.859 325.181C210.134 325.338 210.854 325.653 211.902 326.099L204.466 338.407Z" fill="#F4AD85"/>
<path fill-rule="evenodd" clip-rule="evenodd" d="M320.015 291.302C320.015 291.302 281.307 366.775 269.643 369.675C257.98 372.574 227.296 354.231 201.77 338.486C201.416 335.35 207.163 323.501 210.239 323.344C219.756 327.359 259.132 344.653 261.867 344.626C264.145 344.613 281.739 298.283 291.949 270.492C296.91 256.977 304.149 240.917 315.891 235.787C315.905 235.8 334.336 240.497 320.015 291.302Z" fill="#333258"/>
<path fill-rule="evenodd" clip-rule="evenodd" d="M313.967 302.796C302.605 324.039 278.44 367.483 269.643 369.675C257.98 372.574 227.296 354.231 201.77 338.486C201.612 337.042 202.725 333.775 204.283 330.652C206.325 333.906 210.894 338.355 220.79 343.813C243.044 356.094 256.173 362.366 263.543 363.993C270.913 365.62 277.668 353.969 285.168 342.566C292.669 331.164 313.3 288.297 314.177 286.802C314.622 286.054 314.386 293.677 313.967 302.796Z" fill="#262649"/>
<path fill-rule="evenodd" clip-rule="evenodd" d="M546.583 317.413C553.822 307.795 563.339 298.361 563.705 302.652C564.085 306.943 554.751 315.537 550.392 319.67C546.059 323.829 546.583 317.413 546.583 317.413Z" fill="#F4AD85"/>
<path fill-rule="evenodd" clip-rule="evenodd" d="M548.115 318.043C558.43 309.396 571.18 301.537 570.512 306.3C569.831 311.076 557.5 318.069 551.714 321.481C545.929 324.892 548.115 318.043 548.115 318.043Z" fill="#F4AD85"/>
<path fill-rule="evenodd" clip-rule="evenodd" d="M552.421 308.202C552.238 307.861 552.042 307.546 551.832 307.244C549.607 304.082 545.811 302.704 544.331 302.429C541.779 301.956 539.684 302.849 539.54 304.213C539.396 305.578 541.294 306.365 541.294 306.365C547.251 307.73 548.075 313.083 545.3 316.232C544.528 317.111 543.559 317.833 542.499 318.332C542.774 318.292 543.062 318.227 543.389 318.161C546.138 317.649 555.354 312.926 552.421 308.202Z" fill="#F09373"/>
<path fill-rule="evenodd" clip-rule="evenodd" d="M552.67 319.801C552.251 321.638 551.518 323.659 549.947 325.758C557.33 321.533 562.802 318.358 564.556 317.387C568.902 314.986 570.761 314.028 571.075 312.65C570.735 312.27 570.224 312.02 569.583 311.994C567.737 311.915 559.189 315.209 555.34 316.783C554.346 317.19 553.678 317.479 553.495 317.571C553.285 317.676 553.141 317.702 553.024 317.689C552.945 318.371 552.84 319.08 552.67 319.801Z" fill="#F4AD85"/>
<path fill-rule="evenodd" clip-rule="evenodd" d="M189.425 317.61C182.186 307.992 172.67 298.558 172.303 302.849C171.924 307.139 181.257 315.734 185.616 319.867C189.962 324.013 189.425 317.61 189.425 317.61Z" fill="#F4AD85"/>
<path fill-rule="evenodd" clip-rule="evenodd" d="M187.907 318.24C177.592 309.593 164.842 301.734 165.509 306.496C166.19 311.273 178.521 318.266 184.307 321.678C190.093 325.076 187.907 318.24 187.907 318.24Z" fill="#F4AD85"/>
<path fill-rule="evenodd" clip-rule="evenodd" d="M183.6 308.386C183.783 308.045 183.98 307.73 184.189 307.428C186.415 304.266 190.211 302.888 191.69 302.613C194.243 302.14 196.337 303.033 196.481 304.397C196.625 305.749 194.74 306.549 194.74 306.549C188.771 307.914 187.959 313.267 190.734 316.416C191.507 317.295 192.462 318.017 193.536 318.515C193.261 318.476 192.973 318.41 192.646 318.345C189.884 317.833 180.668 313.123 183.6 308.386Z" fill="#F09373"/>
<path fill-rule="evenodd" clip-rule="evenodd" d="M183.351 319.998C183.77 321.835 184.503 323.856 186.074 325.955C178.691 321.743 173.219 318.555 171.465 317.584C167.119 315.183 165.261 314.225 164.946 312.847C165.287 312.467 165.797 312.217 166.439 312.191C168.284 312.112 176.832 315.406 180.681 316.98C181.676 317.387 182.343 317.676 182.527 317.768C182.736 317.873 182.88 317.899 182.998 317.886C183.077 318.555 183.181 319.263 183.351 319.998Z" fill="#F4AD85"/>
<path fill-rule="evenodd" clip-rule="evenodd" d="M632.819 428.979C635.851 428.979 638.726 430.171 640.866 432.308C643.005 434.444 644.2 437.315 644.2 440.343C644.2 443.371 643.005 446.241 640.866 448.378C638.726 450.514 635.851 451.707 632.819 451.707C629.786 451.707 626.911 450.514 624.772 448.378C622.632 446.241 621.437 443.371 621.437 440.343C621.437 437.315 622.632 434.444 624.772 432.308C626.911 430.171 629.799 428.979 632.819 428.979ZM637.728 435.441C636.429 434.13 634.67 433.409 632.819 433.409C630.968 433.409 629.222 434.13 627.909 435.441C626.609 436.738 625.874 438.495 625.874 440.343C625.874 442.191 626.596 443.934 627.909 445.245C629.222 446.556 630.968 447.277 632.819 447.277C634.67 447.277 636.416 446.556 637.728 445.245C639.041 443.934 639.763 442.191 639.763 440.343C639.763 438.495 639.041 436.738 637.728 435.441Z" fill="#F7B63A"/>
<path fill-rule="evenodd" clip-rule="evenodd" d="M614.703 462.587C624.522 462.587 632.556 454.565 632.556 444.76V443.764V427.51V426.187C632.556 425.321 631.847 424.614 630.981 424.614H598.438C597.572 424.614 596.863 425.321 596.863 426.187V427.51V443.764V444.76C596.85 454.578 604.884 462.587 614.703 462.587Z" fill="#FAC74C"/>
<path fill-rule="evenodd" clip-rule="evenodd" d="M626.439 442.545C626.439 444.446 626.137 446.281 625.572 448.011C625.257 448.981 624.864 449.925 624.391 450.816C622.448 454.486 619.271 457.409 615.412 459.008C613.311 459.886 611.001 460.371 608.586 460.371C607.588 460.371 606.617 460.293 605.658 460.136C608.31 461.708 611.408 462.6 614.69 462.6C618.694 462.6 622.409 461.263 625.402 459.008C627.345 457.54 628.986 455.692 630.206 453.569C630.705 452.703 631.125 451.799 631.467 450.868C632.162 448.968 632.543 446.923 632.543 444.786V443.79V433.488V430.656V427.537V426.213C632.543 425.348 631.834 424.64 630.968 424.64H626.439V425.321V432.098V435.519V441.562V442.545Z" fill="#F7B63A"/>
<path fill-rule="evenodd" clip-rule="evenodd" d="M599.239 462.587H630.18C631.493 462.587 632.556 461.512 632.556 460.214C632.556 458.903 631.493 457.842 630.18 457.842H599.239C597.926 457.842 596.863 458.916 596.863 460.214C596.85 461.525 597.926 462.587 599.239 462.587Z" fill="#FAC74C"/>
<path fill-rule="evenodd" clip-rule="evenodd" d="M602.573 428.009C604.227 428.009 605.58 429.359 605.58 431.01V441.759C605.58 443.41 604.227 444.76 602.573 444.76C600.919 444.76 599.567 443.41 599.567 441.759V431.01C599.567 429.359 600.919 428.009 602.573 428.009Z" fill="#FAD996"/>
<path fill-rule="evenodd" clip-rule="evenodd" d="M599.462 402.645H613.075C614.112 402.645 614.952 401.806 614.952 400.771C614.952 399.735 614.112 398.896 613.075 398.896H594.776C592.085 398.896 589.879 396.694 589.879 394.007C589.879 391.32 592.085 389.118 594.776 389.118H642.375C645.066 389.118 647.272 391.32 647.272 394.007C647.272 396.694 645.066 398.896 642.375 398.896H625.769C624.732 398.896 623.892 399.735 623.892 400.771C623.892 401.806 624.732 402.645 625.769 402.645H632.162C634.25 402.645 635.943 404.349 635.943 406.42C635.943 408.491 634.236 410.195 632.162 410.195H621.595C617.46 410.195 614.073 413.577 614.073 417.706V421.153C614.073 422.123 613.272 422.923 612.301 422.923C611.329 422.923 610.529 422.123 610.529 421.153V414.599C610.529 412.174 608.546 410.195 606.118 410.195H599.462C597.388 410.195 595.682 408.491 595.682 406.42C595.682 404.336 597.375 402.645 599.462 402.645Z" fill="white"/>
<path opacity="0.75" fill-rule="evenodd" clip-rule="evenodd" d="M87.7732 266.505C69.3294 247.761 55.6113 271.577 57.5279 295.486C59.3395 318.149 78.9123 395.93 75.2892 428.647H82.7848C101.111 386.689 111.389 290.505 87.7732 266.505Z" fill="#E49BEB"/>
<path opacity="0.75" fill-rule="evenodd" clip-rule="evenodd" d="M80.0281 428.647C97.8681 362.519 75.2892 271.106 75.2104 270.791C75.0791 270.227 74.5015 269.873 73.9371 270.018C73.3726 270.149 73.0181 270.725 73.1625 271.289C73.2413 271.604 95.8465 363.122 77.8752 428.647H80.0281Z" fill="#CD80E8"/>
<path opacity="0.75" fill-rule="evenodd" clip-rule="evenodd" d="M42.274 307.82C22.8456 297.544 17.936 319.971 25.5104 338.532C31.7853 353.907 59.5233 399.404 70.012 428.634H79.8969C80.737 388.249 65.2205 319.958 42.274 307.82Z" fill="#E2C3E6"/>
<path opacity="0.75" fill-rule="evenodd" clip-rule="evenodd" d="M76.2868 428.647C69.8545 374.014 33.4656 314.623 33.3343 314.413C33.0849 313.994 32.5336 313.863 32.1135 314.112C31.6934 314.361 31.5621 314.911 31.8115 315.331C31.9428 315.541 68.0954 374.552 74.5147 428.647H76.2868Z" fill="#DF9BEA"/>
<path fill-rule="evenodd" clip-rule="evenodd" d="M124.412 333.76C143.249 325.542 146.229 346.789 137.867 363.554C132.209 374.892 111.796 403.939 98.0519 428.647H82.3779C87.7338 391.264 104.944 342.254 124.412 333.76Z" fill="#EEE0FF"/>
<path fill-rule="evenodd" clip-rule="evenodd" d="M87.9833 428.647C101.36 383.373 132.157 340.694 132.275 340.524C132.537 340.157 133.062 340.065 133.43 340.327C133.798 340.589 133.889 341.101 133.627 341.481C133.509 341.651 103.027 383.884 89.6898 428.647H87.9833Z" fill="#F9EBFF"/>
<path fill-rule="evenodd" clip-rule="evenodd" d="M58.2368 413.691H113.424C115.078 413.691 116.43 415.041 116.43 416.693V430.299C116.43 431.95 115.078 433.3 113.424 433.3H58.2368C56.5828 433.3 55.2307 431.95 55.2307 430.299V416.693C55.2438 415.041 56.5959 413.691 58.2368 413.691Z" fill="#151F42"/>
<path fill-rule="evenodd" clip-rule="evenodd" d="M67.7147 424.767H103.959L113.437 433.287L105.692 463.029H85.8435H65.9819L58.2368 433.287L67.7147 424.767Z" fill="#151F42"/>
<path fill-rule="evenodd" clip-rule="evenodd" d="M113.437 433.287L111.836 439.408H59.8383L58.2368 433.287H113.437Z" fill="#01051A"/>
</g>
<defs>
<clipPath id="clip0">
<rect width="778" height="526" fill="white" transform="translate(0.0600586)"/>
</clipPath>
</defs>
</svg>
