<svg version="1.1" id="Capa_1" xmlns="http://www.w3.org/2000/svg" x="0" y="0" viewBox="0 0 511.999 511.999" xml:space="preserve"><path d="M283.83 0H104.55C78.102 0 56.661 21.441 56.661 47.889V464.11c0 26.449 21.441 47.889 47.889 47.889h179.28c26.449 0 47.889-21.441 47.889-47.889V47.889C331.719 21.441 310.278 0 283.83 0z" fill="#efefef"/><path d="M82.415 464.111V47.89c0-26.449 21.441-47.89 47.89-47.89H104.55C78.102 0 56.661 21.441 56.661 47.889V464.11c0 26.449 21.441 47.889 47.889 47.889h25.755c-26.449.001-47.89-21.44-47.89-47.888z" fill="#ddd"/><path d="M304.934 463.859c0 11.795-9.561 21.356-21.356 21.356H103.772c-11.795 0-21.357-9.562-21.357-21.357V48.141c0-11.795 9.562-21.357 21.357-21.357h22.126c4.431 0 8.023 3.477 8.026 7.767v4.595c0 6.799 5.563 12.362 12.362 12.362H241.061c6.8 0 12.363-5.563 12.363-12.363v-4.594c.003-4.29 3.595-7.767 8.026-7.767h22.127c11.795 0 21.356 9.562 21.356 21.356l.001 415.719z" fill="#3997ee"/><path d="M110.23 463.859V48.141c0-10.61 7.745-19.388 17.885-21.05a8.252 8.252 0 00-2.216-.307h-22.126c-11.795 0-21.357 9.562-21.357 21.357v415.717c0 11.795 9.562 21.357 21.357 21.357h27.815c-11.796 0-21.358-9.561-21.358-21.356z" fill="#1e88d8"/><path d="M227.578 360.563h-68.431c-9.388 0-16.998 7.61-16.998 16.998 0 9.388 7.61 16.998 16.998 16.998h68.431c9.388 0 16.998-7.61 16.998-16.998 0-9.387-7.61-16.998-16.998-16.998z" fill="#64c4ff"/><path d="M193.363 377.561c0-9.388 7.61-16.998 16.998-16.998h-51.213c-9.388 0-16.998 7.61-16.998 16.998s7.61 16.998 16.998 16.998h51.213c-9.388 0-16.998-7.61-16.998-16.998z" fill="#48aef9"/><g fill="#ddd"><path d="M222.52 33.481h-31.936a7.726 7.726 0 110-15.452h31.936a7.726 7.726 0 110 15.452zM163.439 33.945c-4.336 0-7.726-3.578-7.726-7.726 0-4.835 4.428-8.527 9.241-7.583 3.744.778 6.212 3.998 6.212 7.583-.001 4.174-3.357 7.726-7.727 7.726z"/></g><path d="M197.796 456.885h-11.332a7.726 7.726 0 110-15.452h11.332a7.726 7.726 0 110 15.452z" fill="#48aef9"/><g fill="#efefef"><path d="M166.89 177.706h-22.664a7.726 7.726 0 110-15.452h22.664a7.726 7.726 0 017.726 7.726 7.725 7.725 0 01-7.726 7.726zM175.132 213.763h-22.664a7.726 7.726 0 110-15.452h22.664a7.726 7.726 0 110 15.452zM190.584 285.875H167.92a7.726 7.726 0 110-15.452h22.664a7.726 7.726 0 110 15.452zM182.343 249.819h-21.634a7.726 7.726 0 110-15.452h21.634a7.726 7.726 0 110 15.452z"/></g><path d="M395.309 169.98H215.653l22.86 108.169h134.253a5.876 5.876 0 005.732-4.579l21.98-97.119c.751-3.316-1.769-6.471-5.169-6.471z" fill="#fac149"/><path fill="#f8a748" d="M215.653 169.98l22.861 108.169h35.709l-22.86-108.169z"/><path d="M377.047 304.419H251.28c-7.275-36.797.333-.163-37.699-180.332a7.728 7.728 0 00-7.56-6.131h-32.95a7.726 7.726 0 100 15.452h26.685l37.595 180.234a7.725 7.725 0 007.58 6.228h132.116a7.726 7.726 0 100-15.451z" fill="#ddd"/><circle cx="405.375" cy="173.59" r="49.964" fill="#32cc65"/><path d="M386.196 184.66c-11.383-19.716-7.79-43.956 7.232-59.586a49.96 49.96 0 00-13.032 5.242c-23.897 13.797-32.085 44.354-18.288 68.252 13.797 23.897 44.355 32.085 68.252 18.288a49.958 49.958 0 0011.056-8.665c-21.048 5.193-43.837-3.815-55.22-23.531z" fill="#23b658"/><circle cx="267.845" cy="325.54" r="13.392" fill="#647892"/><path d="M267.848 325.537c-2.477-4.29-2.299-9.376.006-13.382a13.314 13.314 0 00-6.702 1.784c-6.405 3.698-8.6 11.889-4.902 18.294s11.889 8.6 18.294 4.902a13.314 13.314 0 004.896-4.912c-4.622-.007-9.115-2.395-11.592-6.686z" fill="#4d6682"/><circle cx="366.745" cy="325.54" r="13.392" fill="#647892"/><path d="M366.745 325.537c-2.477-4.29-2.299-9.376.006-13.382a13.317 13.317 0 00-6.702 1.784c-6.405 3.698-8.6 11.889-4.902 18.294s11.889 8.6 18.294 4.902a13.314 13.314 0 004.896-4.912c-4.621-.007-9.115-2.395-11.592-6.686z" fill="#4d6682"/><path d="M422.375 166.374h-9.787v-9.787a7.726 7.726 0 10-15.452 0v9.787h-8.757a7.726 7.726 0 100 15.452h8.757v8.757a7.726 7.726 0 1015.452 0v-8.757h9.787a7.726 7.726 0 100-15.452z" fill="#efefef"/></svg>