<svg id="Layer_1_1_" height="512" viewBox="0 0 64 64" width="512" xmlns="http://www.w3.org/2000/svg"><path d="M62 40v4c0 2.21-1.79 4-4 4H6c-2.21 0-4-1.79-4-4v-4z" fill="#732de2"/><path d="M62 6v34H2V6c0-2.21 1.79-4 4-4h52c2.21 0 4 1.79 4 4z" fill="#f9f1e4"/><path d="M62 40H32V2h26a4 4 0 014 4z" fill="#e8dac5"/><path d="M46 28H22a2 2 0 01-2-2v-7h28v7a2 2 0 01-2 2z" fill="#e58842"/><path d="M48 26v-6c-4.413 0-8 3.587-8 8h6a2 2 0 002-2z" fill="#d6713a"/><circle cx="48" cy="28" fill="#f4b34a" r="6"/><path d="M20 15h28v4H20z" fill="#f4b34a"/><path d="M48 12v3H20v-3c0-1.1.9-2 2-2h24c1.1 0 2 .9 2 2z" fill="#e58842"/><path d="M46 58a4 4 0 01-4 4H22c-2.21 0-4-1.79-4-4z" fill="#732de2"/><path d="M38 48l3 10H23l3-10z" fill="#4c1ea5"/><path d="M20 19h4.5a2.5 2.5 0 010 5H2V8h10l8-2 8 4h-6c-1.1 0-2 .9-2 2z" fill="#dbc6a9"/><path d="M38.6 50l-.6-2H26l-.6 2z" fill="#3c1991"/><g fill="#6c253d"><path d="M47 31.414l-2.707-2.707 1.414-1.414L47 28.586l3.293-3.293 1.414 1.414zM29 22h2v2h-2zM33 22h2v2h-2zM37 22h2v2h-2z"/></g><path d="M17 17h3v2h-3z" fill="#ccb59a"/></svg>