<?xml version="1.0" encoding="utf-8"?>
<!-- Generator: Adobe Illustrator 16.0.0, SVG Export Plug-In . SVG Version: 6.00 Build 0)  -->
<!DOCTYPE svg PUBLIC "-//W3C//DTD SVG 1.1//EN" "http://www.w3.org/Graphics/SVG/1.1/DTD/svg11.dtd">
<svg version="1.1" id="Layer_1" xmlns="http://www.w3.org/2000/svg" xmlns:xlink="http://www.w3.org/1999/xlink" x="0px" y="0px"
	 width="512px" height="512px" viewBox="0 0 512 512" enable-background="new 0 0 512 512" xml:space="preserve">
<g id="line_chart_1">
	<path fill="#434A54" d="M138.695,479.948c-5.89,0-10.67,4.765-10.67,10.654c0,5.889,4.78,10.669,10.67,10.669
		c5.889,0,10.669-4.78,10.669-10.669C149.364,484.713,144.584,479.948,138.695,479.948z"/>
	<path fill="#434A54" d="M202.681,479.948c-5.89,0-10.67,4.765-10.67,10.654c0,5.889,4.78,10.669,10.67,10.669
		c5.889,0,10.669-4.78,10.669-10.669C213.35,484.713,208.569,479.948,202.681,479.948z"/>
	<path fill="#434A54" d="M266.666,479.948c-5.889,0-10.67,4.765-10.67,10.654c0,5.889,4.781,10.669,10.67,10.669
		c5.896,0,10.678-4.78,10.678-10.669C277.344,484.713,272.562,479.948,266.666,479.948z"/>
	<path fill="#434A54" d="M330.644,479.948c-5.874,0-10.653,4.765-10.653,10.654c0,5.889,4.779,10.669,10.653,10.669
		c5.905,0,10.685-4.78,10.685-10.669C341.328,484.713,336.549,479.948,330.644,479.948z"/>
	<path fill="#434A54" d="M394.629,479.948c-5.873,0-10.654,4.765-10.654,10.654c0,5.889,4.781,10.669,10.654,10.669
		c5.904,0,10.686-4.78,10.686-10.669C405.314,484.713,400.533,479.948,394.629,479.948z"/>
	<path fill="#434A54" d="M458.614,479.948c-5.874,0-10.653,4.765-10.653,10.654c0,5.889,4.779,10.669,10.653,10.669
		c5.905,0,10.685-4.78,10.685-10.669C469.299,484.713,464.52,479.948,458.614,479.948z"/>
	<path fill="#434A54" d="M74.71,479.948c-5.89,0-10.67,4.765-10.67,10.654c0,5.889,4.78,10.669,10.67,10.669
		c5.889,0,10.669-4.78,10.669-10.669C85.379,484.713,80.599,479.948,74.71,479.948z"/>
	<path fill="#434A54" d="M21.394,106.69c-5.889,0-10.669,4.779-10.669,10.669s4.78,10.67,10.669,10.67
		c5.89,0,10.67-4.78,10.67-10.67S27.283,106.69,21.394,106.69z"/>
	<path fill="#434A54" d="M21.394,170.676c-5.889,0-10.669,4.779-10.669,10.669s4.78,10.67,10.669,10.67
		c5.89,0,10.67-4.78,10.67-10.67S27.283,170.676,21.394,170.676z"/>
	<path fill="#434A54" d="M21.394,234.661c-5.889,0-10.669,4.779-10.669,10.669S15.505,256,21.394,256c5.89,0,10.67-4.78,10.67-10.67
		S27.283,234.661,21.394,234.661z"/>
	<path fill="#434A54" d="M21.394,298.646c-5.889,0-10.669,4.781-10.669,10.67s4.78,10.67,10.669,10.67
		c5.89,0,10.67-4.781,10.67-10.67S27.283,298.646,21.394,298.646z"/>
	<path fill="#434A54" d="M21.394,362.632c-5.889,0-10.669,4.779-10.669,10.669s4.78,10.67,10.669,10.67
		c5.89,0,10.654-4.78,10.654-10.67S27.283,362.632,21.394,362.632z"/>
	<path fill="#434A54" d="M21.394,426.617c-5.889,0-10.669,4.779-10.669,10.669s4.78,10.67,10.669,10.67
		c5.89,0,10.654-4.78,10.654-10.67S27.283,426.617,21.394,426.617z"/>
	<path fill="#434A54" d="M21.394,42.705c-5.889,0-10.669,4.779-10.669,10.669s4.78,10.67,10.669,10.67
		c5.89,0,10.67-4.78,10.67-10.67S27.283,42.705,21.394,42.705z"/>
	<path fill="#656D78" d="M501.292,490.603H21.394V10.712c0-5.89-4.78-10.653-10.669-10.653c-5.89,0-10.67,4.764-10.67,10.653v490.56
		c0,5.89,4.78,10.67,10.67,10.67h490.567c5.874,0,10.653-4.78,10.653-10.67S507.166,490.603,501.292,490.603z"/>
	<path fill="#A0D468" d="M501.292,85.367h-63.985c-5.904,0-10.686,4.764-10.686,10.669c0,5.89,4.781,10.654,10.686,10.654h38.241
		L298.65,283.571l-67.086-67.109c-1.938-1.938-4.608-3.124-7.561-3.124c-2.938,0-5.608,1.187-7.53,3.124L67.18,365.756
		c-1.937,1.937-3.14,4.593-3.14,7.545c0,5.89,4.78,10.67,10.67,10.67c2.952,0,5.623-1.203,7.545-3.141l141.749-141.748
		l67.117,67.109c1.938,1.921,4.593,3.124,7.529,3.124c2.969,0,5.624-1.203,7.561-3.124L490.607,121.78v38.21c0,0,0,0.016,0,0.031
		c0,5.89,4.779,10.654,10.685,10.654c5.874,0,10.653-4.765,10.653-10.654l0,0V96.036C511.945,90.131,507.166,85.367,501.292,85.367z
		"/>
</g>
</svg>
