<svg height="464pt" viewBox="0 0 464 464" width="464pt" xmlns="http://www.w3.org/2000/svg"><path d="M440 152v288H24V152c0-22.09 17.91-40 40-40h336c22.09 0 40 17.91 40 40zm0 0" fill="#ccdce5"/><path d="M344 464H24c-13.254 0-24-10.746-24-24v-24h160l16 16h112l16-16h160v24c0 13.254-10.746 24-24 24zm0 0" fill="#abbac2"/><path d="M56 144h352v240H56zm0 0" fill="#0093ba"/><path d="M408 144h-64L104 384h304zm0 0" fill="#047fa7"/><path d="M144 280h176c17.672 0 32 14.328 32 32s-14.328 32-32 32H144c-17.672 0-32-14.328-32-32s14.328-32 32-32zm0 0" fill="#ffc119"/><path d="M320 280H208l-64 64h176c17.672 0 32-14.328 32-32s-14.328-32-32-32zm0 0" fill="#faac2b"/><path d="M200 112V64c0-17.672 14.328-32 32-32s32 14.328 32 32h32c0-35.348-28.652-64-64-64s-64 28.652-64 64v48zm0 0" fill="#ccdce5"/><path d="M328 112c0-8.836-7.164-16-16-16H152c-8.836 0-16 7.164-16 16v112c0 8.836 7.164 16 16 16h96l80-80zm0 0" fill="#ffc119"/><path d="M248 240h64c8.836 0 16-7.164 16-16v-64zm0 0" fill="#faac2b"/><g fill="#ea732d"><path d="M256 160c0 13.254-10.746 24-24 24s-24-10.746-24-24 10.746-24 24-24 24 10.746 24 24zm0 0"/><path d="M224 176h16v32h-16zm0 0M144 304h16v16h-16zm0 0M176 304h16v16h-16zm0 0M208 304h16v16h-16zm0 0M240 304h16v16h-16zm0 0"/></g><path d="M368 248c0 30.93-25.07 56-56 56s-56-25.07-56-56 25.07-56 56-56 56 25.07 56 56zm0 0" fill="#eb4042"/><path d="M312 272a8.001 8.001 0 01-5.656-2.344l-24-24 11.312-11.312L312 252.688l50.344-50.344 11.312 11.312-56 56A8.001 8.001 0 01312 272zm0 0" fill="#e9f0f1"/></svg>