<svg version="1.1" id="Capa_1" xmlns="http://www.w3.org/2000/svg" x="0" y="0" viewBox="0 0 512 512" xml:space="preserve"><circle cx="256" cy="256" r="256" fill="#7ec359"/><path fill="#4d535f" d="M211.676 321.92h88.64v120.44h-88.64z"/><path fill="#656d7a" d="M37.392 59.444h437.2v320h-437.2z"/><path fill="#fdfeff" d="M58.852 80.904h394.28v241H58.852z"/><g fill="#656d7a"><path d="M170.232 425.72h171.536v33.952H170.232zM400.932 121.196L307.8 214.324l-45.412-45.412-46.764 46.764-44.14-44.22-78.336 78.42-7.396-7.4 85.732-85.652 44.14 44.14 46.764-46.764 45.412 45.412 85.736-85.736z"/></g><circle cx="308.48" cy="205.72" r="14.272" fill="#70b1e1"/><circle cx="262.6" cy="163.772" r="14.272" fill="#7ec359"/><circle cx="171.368" cy="166.884" r="14.272" fill="#f5ea07"/><g fill="#f1592f"><circle cx="215.908" cy="207.452" r="14.272"/><circle cx="92.16" cy="242.24" r="14.272"/></g><path fill="#656d7a" d="M411.924 104.348l-50.592 8.912 41.68 41.68z"/><path d="M148.48 298.472v-75.708c-9.8 9.8-20.84 20.88-30.48 30.52v45.184h30.48v.004z" fill="#70b1e1"/><path d="M195.32 298.472v-74.868c-8.72-8.68-18.16-18.12-23.84-23.84-1.68 1.68-3.96 3.96-6.64 6.6v92.104h30.48v.004z" fill="#7ec359"/><path d="M242.16 298.472v-81.028l-26.52 26.52s-1.52-1.52-3.96-4v58.504h30.48v.004z" fill="#70b1e1"/><path fill="#f5ea07" d="M289 298.472v-74.668l-26.6-26.6-3.88 3.88v97.388z"/><path fill="#7ec359" d="M335.84 298.472v-83.908l-28.04 28.04-2.44-2.44v58.308z"/><path fill="#f1592f" d="M382.68 298.472V167.724l-30.48 30.48v100.268z"/><circle cx="256" cy="350.04" r="15.728" fill="#4d535f"/></svg>