<?xml version="1.0" encoding="UTF-8"?><svg version="1.1" viewBox="0 0 512 512" xmlns="http://www.w3.org/2000/svg" xmlns:xlink="http://www.w3.org/1999/xlink"><polygon points="287.976,469.161 287.976,373.236 224.025,373.236 224.025,469.161 64.15,469.161 64.15,511.8 224.025,511.8 287.976,511.8 447.851,511.8 447.851,469.161" fill="#656D78"></polygon><polygon fill="#CCD1D9" points="309.286,469.161 287.976,469.161 287.976,373.236 224.025,373.236 224.025,469.161 202.698,469.161 202.698,511.8 224.025,511.8 287.976,511.8 309.286,511.8"></polygon><path d="M351.925.2c-43.902 0-83.685 17.697-112.568 46.354 -18.548-15.621-42.482-25.043-68.634-25.043 -58.86 0-106.572 47.721-106.572 106.58 0 8.041.89 15.863 2.576 23.389 -38.08 8.54-66.526 42.545-66.526 83.2 0 47.08 38.173 85.27 85.262 85.27h330.413c26.386 0 95.925-31.975 95.925-159.883 -.001-88.291-71.585-159.867-159.876-159.867Z" fill="#A0D468"></path><polygon fill="#434A54" points="415.875,310.613 96.125,310.613 96.125,192.042 160.075,149.411 351.925,149.411 415.875,192.042"></polygon><rect width="319.75" height="127.908" x="96.125" y="192.042" fill="#656D78"></rect><path fill="#A0D468" d="M373.236 245.337c0 11.771-9.54 21.318-21.312 21.318 -11.772 0-21.327-9.547-21.327-21.318 0-11.772 9.556-21.319 21.327-21.319 11.771 0 21.312 9.546 21.312 21.319Z"></path><g fill="#434A54"><path d="M149.411 266.655c-2.731 0-5.448-1.046-7.541-3.122 -4.152-4.161-4.152-10.913 0-15.074l21.327-21.319c4.153-4.16 10.914-4.16 15.066 0 4.169 4.161 4.169 10.913 0 15.074l-21.312 21.319c-2.091 2.076-4.807 3.122-7.54 3.122Z"></path><path d="M192.05 266.655c-2.732 0-5.464-1.046-7.541-3.122 -4.168-4.161-4.168-10.913 0-15.074l21.312-21.319c4.169-4.16 10.914-4.16 15.082 0 4.153 4.161 4.153 10.913 0 15.074l-21.327 21.319c-2.077 2.076-4.809 3.122-7.526 3.122Z"></path><path d="M234.673 266.655c-2.717 0-5.448-1.046-7.525-3.122 -4.168-4.161-4.168-10.913 0-15.074l21.312-21.319c4.169-4.16 10.913-4.16 15.066 0 4.169 4.161 4.169 10.913 0 15.074l-21.312 21.319c-2.076 2.076-4.809 3.122-7.541 3.122Z"></path></g><rect width="319.75" height="127.9" x="96.125" y="298.623" fill="#656D78"></rect><rect width="319.75" height="21.312" x="96.125" y="299.966" fill="#434A54"></rect><path fill="#A0D468" d="M373.236 373.236c0 11.772-9.54 21.312-21.312 21.312 -11.772 0-21.327-9.539-21.327-21.312 0-11.771 9.556-21.312 21.327-21.312 11.771 0 21.312 9.541 21.312 21.312Z"></path><g fill="#434A54"><path d="M149.411 394.548c-2.731 0-5.448-1.03-7.541-3.122 -4.152-4.153-4.152-10.898 0-15.066l21.327-21.312c4.153-4.169 10.914-4.169 15.066 0 4.169 4.152 4.169 10.897 0 15.066l-21.312 21.312c-2.091 2.092-4.807 3.122-7.54 3.122Z"></path><path d="M192.05 394.548c-2.732 0-5.464-1.03-7.541-3.122 -4.168-4.153-4.168-10.898 0-15.066l21.312-21.312c4.169-4.169 10.914-4.169 15.082 0 4.153 4.152 4.153 10.897 0 15.066l-21.327 21.312c-2.077 2.092-4.809 3.122-7.526 3.122Z"></path><path d="M234.673 394.548c-2.717 0-5.448-1.03-7.525-3.122 -4.168-4.153-4.168-10.898 0-15.066l21.312-21.312c4.169-4.169 10.913-4.169 15.066 0 4.169 4.152 4.169 10.897 0 15.066l-21.312 21.312c-2.076 2.092-4.809 3.122-7.541 3.122Z"></path></g><rect width="106.588" height="21.312" x="202.698" y="468.834" fill="#E6E9ED"></rect><rect width="21.311" height="42.311" x="245.337" y="426.523" fill="#E6E9ED"></rect></svg>