<svg version="1.1" id="Capa_1" xmlns="http://www.w3.org/2000/svg" x="0" y="0" viewBox="0 0 512 512" xml:space="preserve"><path d="M477.223 125.434L143.174 96.327c-4.268-.363-7.993 2.788-8.357 7.039s2.787 7.992 7.038 8.357l53.097 4.626v197.836a7.726 7.726 0 1015.452 0v-196.49l30.903 2.693v191.737a7.726 7.726 0 1015.452 0V121.734l31.934 2.782v187.608a7.726 7.726 0 1015.452 0V125.863l31.934 2.782v183.479a7.726 7.726 0 1015.452 0V129.992l30.903 2.693v179.44a7.726 7.726 0 1015.452 0V134.031l31.934 2.783v175.311a7.726 7.726 0 1015.452 0V138.16l30.633 2.669c.741.063 1.3.672 1.3 1.416v172.077a7.726 7.726 0 1015.452 0V142.245c-.001-8.83-6.636-16.058-15.434-16.811z" fill="#48aef9"/><g fill="#3997ee"><path d="M241.308 264.886v47.239a7.726 7.726 0 007.726 7.726 7.684 7.684 0 004.595-1.525l-12.321-53.44zM134.817 103.366a7.727 7.727 0 007.038 8.357l53.097 4.626v197.836a7.726 7.726 0 1015.452 0V130.84l-6.742-29.243-60.488-5.271a7.718 7.718 0 00-8.357 7.04z"/><path d="M492.141 218.9H169.715a7.726 7.726 0 110-15.452h322.426a7.726 7.726 0 110 15.452z"/></g><path d="M225.17 211.174a7.726 7.726 0 017.726-7.726h-63.181a7.726 7.726 0 100 15.452h63.181a7.725 7.725 0 01-7.726-7.726z" fill="#1e88d8"/><path d="M482.637 300.794H196.312a9.311 9.311 0 01-9.12-7.431l-58.16-281.984A14.259 14.259 0 00115.067 0H27.148c-6.623 0-12.614 4.384-14.171 10.822-2.304 9.524 4.848 18.022 13.986 18.022h72.854a4.447 4.447 0 014.355 3.548l54.716 265.288c.589 2.858-1.027 5.678-3.763 6.694-20.761 7.706-35.225 28.481-33.34 52.28 2.122 26.791 25.086 47.152 51.961 47.152h265.248c6.623 0 12.614-4.385 14.172-10.822 2.303-9.524-4.849-18.021-13.986-18.021H173.465c-12.297 0-22.806-9.542-23.247-21.831-.463-12.873 9.876-23.494 22.648-23.494h309.587c6.623 0 12.615-4.385 14.171-10.823 2.303-9.524-4.85-18.021-13.987-18.021z" fill="#fac149"/><g fill="#f8a748"><path d="M136.804 357.599c-2.233-22.843 11.53-37.512 30.745-44.979 5.002-1.944 7.813-7.278 6.729-12.534l-55.17-267.695a4.446 4.446 0 00-4.355-3.548H99.816a4.447 4.447 0 014.355 3.548l54.716 265.288c.589 2.858-1.027 5.678-3.763 6.694-20.761 7.706-35.225 28.481-33.34 52.28 2.122 26.791 25.086 47.152 51.961 47.152h14.906c-26.508 0-49.267-19.823-51.847-46.206zM210.919 411.531a7.726 7.726 0 01-7.726-7.726v-28.843a7.726 7.726 0 1115.452 0v28.843a7.725 7.725 0 01-7.726 7.726zM398.4 411.531a7.726 7.726 0 01-7.726-7.726v-28.843a7.726 7.726 0 1115.452 0v28.843a7.725 7.725 0 01-7.726 7.726z"/></g><g fill="#f38d1a"><path d="M210.919 387.323a7.725 7.725 0 01-7.726-7.726v24.208a7.726 7.726 0 1015.452 0v-24.208a7.725 7.725 0 01-7.726 7.726zM398.4 387.323a7.725 7.725 0 01-7.726-7.726v24.208a7.726 7.726 0 1015.452 0v-24.208a7.725 7.725 0 01-7.726 7.726z"/></g><path d="M82.155 0H26.74c-6.623 0-12.615 4.385-14.172 10.822-2.303 9.524 4.849 18.021 13.986 18.021h55.6L82.155 0z" fill="#647892"/><path d="M47.579 10.822C49.136 4.385 55.128 0 61.751 0H26.74c-6.623 0-12.614 4.385-14.171 10.822-2.303 9.524 4.849 18.021 13.986 18.021h35.011c-9.138 0-16.29-8.497-13.987-18.021z" fill="#4d6682"/><path d="M237.77 504.74c-25.915 14.962-59.17 6.051-74.131-19.863-14.962-25.914-6.051-59.169 19.864-74.131 25.914-14.962 59.169-6.051 74.131 19.863 14.961 25.914 6.051 59.169-19.864 74.131zm-40.007-69.294c-12.295 7.098-16.523 22.876-9.424 35.17 7.098 12.295 22.876 16.522 35.171 9.424 12.295-7.098 16.522-22.875 9.424-35.17-7.099-12.295-22.876-16.523-35.171-9.424z" fill="#647892"/><path d="M216.887 482.714c-25.038 6.256-42.702-24.3-24.751-42.869-.619-12.845 3.345-25.622 11.242-35.872a53.962 53.962 0 00-19.875 6.773c-25.915 14.962-34.825 48.217-19.864 74.131 19.243 33.329 66.414 36.564 89.935 6.037-12.825 1.714-25.873-1.242-36.687-8.2z" fill="#4d6682"/><path d="M425.8 504.74c-25.915 14.962-59.17 6.051-74.131-19.863-14.962-25.914-6.051-59.169 19.864-74.131 25.914-14.962 59.169-6.051 74.131 19.863 14.961 25.914 6.05 59.169-19.864 74.131zm-40.007-69.294c-12.295 7.098-16.523 22.876-9.424 35.17 7.098 12.295 22.876 16.522 35.171 9.424 12.295-7.098 16.522-22.875 9.424-35.17-7.099-12.295-22.876-16.523-35.171-9.424z" fill="#647892"/><path d="M404.916 482.714c-25.038 6.256-42.702-24.299-24.751-42.869-.619-12.845 3.345-25.622 11.242-35.872a53.962 53.962 0 00-19.875 6.773c-25.915 14.962-34.825 48.217-19.864 74.131 14.962 25.914 48.217 34.825 74.131 19.863a53.959 53.959 0 0015.803-13.826c-12.824 1.714-25.871-1.242-36.686-8.2z" fill="#4d6682"/></svg>