<svg height="512" viewBox="0 0 52 60" width="512" xmlns="http://www.w3.org/2000/svg"><g id="Page-1" fill="none" fill-rule="evenodd"><g id="072---Technology-Podcast" fill-rule="nonzero"><path id="Shape" d="M41 27H11a2 2 0 00-2 2v22a2 2 0 002 2h12l-2 6h10l-2-6h12a2 2 0 002-2V29a2 2 0 00-2-2z" fill="#3b97d3"/><g fill="#fac176"><path id="Shape" d="M38 4.82a.93.93 0 01-.45-.11 25.88 25.88 0 00-23.06 0 1 1 0 01-.9-1.78 27.83 27.83 0 0124.86 0A1 1 0 0138 4.82zM50.73 18.2a1 1 0 01-.92-.6A26 26 0 0040.9 6.71 1 1 0 0142 5.07a28 28 0 019.65 11.73 1 1 0 01-.52 1.32 1.14 1.14 0 01-.4.08zM1.27 18.2a1.14 1.14 0 01-.4-.08 1 1 0 01-.52-1.32A28 28 0 0110 5.07a1 1 0 011.1 1.64A26 26 0 002.19 17.6a1 1 0 01-.92.6z"/></g><path id="Shape" d="M33.94 9.57a.84.84 0 01-.38-.08 20 20 0 00-15.12 0 1 1 0 11-.76-1.84 21.89 21.89 0 0116.64 0 1 1 0 01-.38 1.92zM45 20a1 1 0 01-.9-.57 19.9 19.9 0 00-7.1-8.1 1.004 1.004 0 111.1-1.68 21.88 21.88 0 017.75 8.9 1 1 0 01-.47 1.33A1 1 0 0145 20zM7 20a1 1 0 01-.9-1.43c1.72-3.62 4.4-6.7 7.75-8.9A1.01 1.01 0 0115 11.33a19.9 19.9 0 00-7 8.08A1 1 0 017 20z" fill="#f18d46"/><path id="Shape" d="M29.76 14.49a1.15 1.15 0 01-.26 0 13.62 13.62 0 00-7 0 1.016 1.016 0 11-.5-1.97 15.87 15.87 0 018 0 1 1 0 01.71 1.23 1 1 0 01-.95.74zM39.16 21.8a1 1 0 01-.88-.52A14.07 14.07 0 0033.13 16a1 1 0 111-1.72A16.07 16.07 0 0140 20.32a1 1 0 01-.84 1.48zM12.84 21.8a1 1 0 01-.88-1.48 16.07 16.07 0 015.89-6.08 1 1 0 011 1.72 14.07 14.07 0 00-5.15 5.32 1 1 0 01-.86.52z" fill="#fac176"/><path id="Shape" d="M29 20a3 3 0 11-6 0 3 3 0 016 0z" fill="#e64c3c"/><path id="Shape" d="M30.92 27H21.1a5 5 0 014.9-4 5 5 0 014.92 4z" fill="#c03a2b"/><path id="Shape" d="M43 29v19H9V29a2 2 0 012-2h30a2 2 0 012 2z" fill="#2c3e50"/><path id="Shape" d="M41.42 27.05C34.73 27.36 9 29.73 9 48V29a2 2 0 012-2h30c.141.001.282.018.42.05z" fill="#35495e"/><path id="Shape" d="M31 59H21l2-6h6z" fill="#2980ba"/><path id="Shape" d="M34 60H18a1 1 0 010-2h16a1 1 0 010 2z" fill="#3b97d3"/><path id="Shape" d="M13 33a1 1 0 01-.71-1.71l1-1a1.004 1.004 0 111.42 1.42l-1 1A1 1 0 0113 33zM13 38a1 1 0 01-.71-1.71l6-6a1.004 1.004 0 111.42 1.42l-6 6A1 1 0 0113 38z" fill="#fff"/></g></g></svg>