<svg height="512pt" viewBox="0 -10 512 512" width="512pt" xmlns="http://www.w3.org/2000/svg"><path d="M129.281 426.602h253.442v58.5H129.28zm0 0" fill="#dad0cd"/><path d="M484.5 438.367h-457c-11.047 0-20-8.953-20-20V131.484c0-11.047 8.953-20 20-20h457c11.047 0 20 8.954 20 20v286.883c0 11.047-8.953 20-20 20zm0 0" fill="#ff97bd"/><path d="M504.5 131.484v286.883c0 11.047-8.95 20-20 20h-31.66c11.05 0 20-8.953 20-20V131.484c0-11.047-8.95-20-20-20h31.66c11.05 0 20 8.954 20 20zm0 0" fill="#fc6393"/><path d="M504.5 389.348v29.02c0 11.046-8.95 20-20 20h-457c-11.05 0-20-8.954-20-20v-29.02zm0 0" fill="#6b97af"/><path d="M504.5 389.348v29.02c0 11.046-8.95 20-20 20h-31.66c11.05 0 20-8.954 20-20v-29.02zm0 0" fill="#50758e"/><path d="M421.59 173.09c0 91.45-74.14 165.582-165.59 165.582-18.809 0-36.89-3.14-53.75-8.922-56.762-19.469-99.602-68.91-109.621-129.441a167.611 167.611 0 01-2.219-27.22c0-58.28 30.11-109.53 75.63-139.038C191.94 17.26 222.84 7.5 256 7.5c66.602 0 124.012 39.32 150.3 96.012 9.821 21.148 15.29 44.718 15.29 69.578zm0 0" fill="#27bef4"/><path d="M421.59 173.09c0 91.45-74.14 165.582-165.59 165.582-6.602 0-13.11-.39-19.512-1.152 82.223-9.692 146-79.61 146-164.43 0-24.86-5.468-48.43-15.289-69.578-23.68-51.063-72.61-88.032-130.758-94.864A166.652 166.652 0 01256 7.5c66.602 0 124.012 39.32 150.3 96.012 9.821 21.148 15.29 44.718 15.29 69.578zm0 0" fill="#209ced"/><path d="M233.281 310.93c-1.02 0-2.031-.051-3.031-.13-10.602-.878-20.512 5.09-25.45 14.52a63.103 63.103 0 01-2.55 4.43c-56.762-19.469-99.602-68.91-109.621-129.441a42.888 42.888 0 018.59-10.2c16.68-14.507 42.11-13.789 57.93 1.66 8.453 8.262 12.73 19.06 12.921 29.88.149 8.53 4.301 16.46 11.418 21.171.551.371 1.09.739 1.633 1.121 8.668 6.137 20.11 6.059 29.117.43 6.16-3.851 13.582-5.89 21.492-5.36 17.79 1.18 32.211 15.54 33.461 33.317 1.47 21.063-15.171 38.602-35.91 38.602zm0 0M406.3 103.512a78.854 78.854 0 01-28.972 28.398c-.867.488-1.738.961-2.629 1.418-9.36 4.832-15.347 14.344-15.558 24.863a48.796 48.796 0 01-.32 4.61c-2.59 21.738-20.622 38.777-42.481 40.168-26.64 1.68-48.762-19.418-48.762-45.7a45.665 45.665 0 015.621-22c5.082-9.23 5.13-20.48-.57-29.347-.07-.121-.149-.242-.23-.371-6.458-10.18-18.54-15.352-30.31-12.742A62.025 62.025 0 01228.5 94.3c-33.77 0-61.27-26.77-62.46-60.25 20.73-13.442 44.67-22.38 70.401-25.403A166.652 166.652 0 01256 7.5c66.602 0 124.012 39.32 150.3 96.012zm0 0" fill="#00e2c7"/><path d="M406.3 103.512a78.854 78.854 0 01-28.972 28.398 163.927 163.927 0 00-10.129-28.398C343.52 52.449 294.59 15.48 236.441 8.648A166.652 166.652 0 01256 7.5c66.602 0 124.012 39.32 150.3 96.012zm0 0" fill="#00c6a9"/><path d="M504.5 302.469a7.5 7.5 0 007.5-7.5V131.484c0-15.164-12.336-27.5-27.5-27.5h-69.82c-.426-.98-.856-1.964-1.301-2.941a7.455 7.455 0 00-.688-1.45 173.163 173.163 0 00-43.332-57.308 7.502 7.502 0 00-10.582.75 7.506 7.506 0 00.754 10.582 158.155 158.155 0 0138.184 49.43 71.106 71.106 0 01-26.453 23.617c-11.836 6.113-19.356 18.137-19.617 31.379a40.362 40.362 0 01-.27 3.871c-2.18 18.281-17.11 32.399-35.504 33.566-10.723.68-20.91-2.972-28.7-10.28-7.796-7.317-12.089-17.24-12.089-27.93 0-6.434 1.625-12.79 4.695-18.383 6.528-11.88 6.207-26.067-.84-37.035l-.207-.32c-8.164-12.868-23.546-19.31-38.261-16.04a55.321 55.321 0 01-11.969 1.309c-28.32 0-51.535-21.09-54.633-48.742C197.817 23.434 225.941 15 256 15c27.234 0 54.09 7.047 77.668 20.375a7.504 7.504 0 0010.223-2.84 7.5 7.5 0 00-2.84-10.219C315.227 7.72 285.812 0 256 0c-34.273 0-66.254 10.016-93.164 27.27-.637.3-1.227.69-1.746 1.148-27.93 18.387-50.242 44.633-63.766 75.566H27.5c-15.164 0-27.5 12.336-27.5 27.5v286.883c0 15.164 12.336 27.5 27.5 27.5h33.172c4.14 0 7.5-3.36 7.5-7.5 0-4.14-3.36-7.5-7.5-7.5H27.5c-6.895 0-12.5-5.605-12.5-12.5v-21.523h482v21.523c0 6.895-5.605 12.5-12.5 12.5H93.332a7.5 7.5 0 00-7.5 7.5 7.5 7.5 0 007.5 7.5h28.45v31.735h-16.114a7.497 7.497 0 00-7.5 7.5 7.5 7.5 0 007.5 7.5h300.664a7.5 7.5 0 007.5-7.5c0-4.145-3.355-7.5-7.5-7.5h-16.113v-31.735H484.5c15.164 0 27.5-12.336 27.5-27.5V327.63c0-4.14-3.36-7.5-7.5-7.5s-7.5 3.36-7.5 7.5v54.215H15v-250.36c0-6.89 5.605-12.5 12.5-12.5h64.086a172.423 172.423 0 00-8.672 54.102c0 9.465.777 18.746 2.242 27.8.035.446.11.887.223 1.321C99.266 283.828 170.484 346.172 256 346.172c95.438 0 173.086-77.649 173.086-173.086 0-18.59-2.992-36.828-8.68-54.102H484.5c6.895 0 12.5 5.61 12.5 12.5V294.97a7.5 7.5 0 007.5 7.5zM375.219 477.602H136.78v-31.735H375.22zm-274.664-275.7a35.595 35.595 0 015.586-6.132c13.754-11.965 34.734-11.364 47.765 1.363 6.715 6.562 10.5 15.316 10.664 24.648.196 11.098 5.723 21.301 14.73 27.258.509.344 1.005.684 1.485 1.02 10.965 7.765 25.656 8.027 37.43.671 5.082-3.18 10.969-4.64 17.02-4.238 14.1.938 25.484 12.27 26.476 26.36.559 8.027-2.137 15.664-7.586 21.511-5.453 5.848-12.855 9.067-20.844 9.067-.746 0-1.543-.035-2.41-.106-12.902-1.078-25.27 5.64-31.95 17.176-50.378-19.57-88.316-64.254-98.366-118.598zM256 331.172a157.691 157.691 0 01-42.328-5.766c3.95-4.906 9.871-7.636 15.98-7.129a45.91 45.91 0 003.63.153c12.015 0 23.613-5.043 31.812-13.836 8.32-8.918 12.43-20.563 11.578-32.79-1.516-21.53-18.902-38.847-40.442-40.277-9.21-.617-18.19 1.625-25.964 6.485-6.63 4.14-14.797 4.066-20.828-.203a99.454 99.454 0 00-1.81-1.246c-4.937-3.266-7.952-8.891-8.058-15.043-.234-13.305-5.625-25.774-15.18-35.118-17.984-17.558-46.574-18.93-66.163-3.543-.2-3.234-.313-6.492-.313-9.773 0-51.203 24.477-96.79 62.332-125.695 2.98 13.14 9.707 25.168 19.594 34.73 13.117 12.692 30.398 19.68 48.66 19.68a70.5 70.5 0 0015.223-1.664c8.57-1.907 17.55 1.883 22.343 9.433l.258.407c4.067 6.324 4.184 14.632.309 21.687-4.29 7.8-6.555 16.656-6.555 25.606 0 14.664 6.137 28.832 16.828 38.867 9.985 9.37 22.801 14.426 36.403 14.426 1.164 0 2.336-.04 3.507-.114 25.621-1.625 46.418-21.289 49.45-46.761.21-1.774.336-3.57.375-5.344.152-7.735 4.562-14.77 11.5-18.356a86.053 86.053 0 0026.375-21.066 158.004 158.004 0 019.57 54.164c0 87.168-70.918 158.086-158.086 158.086zm0 0"/><path d="M256.016 421.355h.039a7.499 7.499 0 007.496-7.464 7.497 7.497 0 00-7.465-7.536h-.141a7.496 7.496 0 00-7.496 7.465 7.5 7.5 0 007.465 7.535zm0 0M217.035 129.8h-.14a7.5 7.5 0 00-.036 15H217a7.5 7.5 0 00.035-15zm0 0M291.035 277.8h-.14a7.5 7.5 0 00-.036 15H291a7.5 7.5 0 00.035-15zm0 0"/></svg>